solid CATIA STL
  facet normal  0.000000e+000  -0.000000e+000 -9.999999e-001
    outer loop
      vertex  5.771375e+001  5.584222e+001  9.000000e+001
      vertex  5.914878e+001  5.700592e+001  9.000000e+001
      vertex  6.013111e+001  5.519450e+001  9.000000e+001
    endloop
  endfacet
  facet normal  0.000000e+000  0.000000e+000 -1.000000e+000
    outer loop
      vertex  6.013111e+001  5.519450e+001  9.000000e+001
      vertex  5.914878e+001  5.700592e+001  9.000000e+001
      vertex  6.111343e+001  5.700592e+001  9.000000e+001
    endloop
  endfacet
  facet normal  0.000000e+000  -0.000000e+000 -9.999999e-001
    outer loop
      vertex  6.013111e+001  5.519450e+001  9.000000e+001
      vertex  6.111343e+001  5.700592e+001  9.000000e+001
      vertex  6.254847e+001  5.584222e+001  9.000000e+001
    endloop
  endfacet
  facet normal  0.000000e+000  0.000000e+000 -9.999999e-001
    outer loop
      vertex  6.254847e+001  5.584222e+001  9.000000e+001
      vertex  6.111343e+001  5.700592e+001  9.000000e+001
      vertex  6.270287e+001  5.816072e+001  9.000000e+001
    endloop
  endfacet
  facet normal  0.000000e+000  -0.000000e+000 -1.000000e+000
    outer loop
      vertex  6.254847e+001  5.584222e+001  9.000000e+001
      vertex  6.270287e+001  5.816072e+001  9.000000e+001
      vertex  6.431809e+001  5.761185e+001  9.000000e+001
    endloop
  endfacet
  facet normal  0.000000e+000  0.000000e+000 -9.999999e-001
    outer loop
      vertex  6.431809e+001  5.761185e+001  9.000000e+001
      vertex  6.270287e+001  5.816072e+001  9.000000e+001
      vertex  6.330998e+001  6.002921e+001  9.000000e+001
    endloop
  endfacet
  facet normal  0.000000e+000  0.000000e+000 -1.000000e+000
    outer loop
      vertex  6.431809e+001  5.761185e+001  9.000000e+001
      vertex  6.330998e+001  6.002921e+001  9.000000e+001
      vertex  6.496583e+001  6.002921e+001  9.000000e+001
    endloop
  endfacet
  facet normal  0.000000e+000  0.000000e+000 -1.000000e+000
    outer loop
      vertex  6.496583e+001  6.002921e+001  9.000000e+001
      vertex  6.330998e+001  6.002921e+001  9.000000e+001
      vertex  6.270287e+001  6.189771e+001  9.000000e+001
    endloop
  endfacet
  facet normal  0.000000e+000  0.000000e+000 -1.000000e+000
    outer loop
      vertex  6.496583e+001  6.002921e+001  9.000000e+001
      vertex  6.270287e+001  6.189771e+001  9.000000e+001
      vertex  6.431809e+001  6.244657e+001  9.000000e+001
    endloop
  endfacet
  facet normal  -0.000000e+000  0.000000e+000 -1.000000e+000
    outer loop
      vertex  6.431809e+001  6.244657e+001  9.000000e+001
      vertex  6.270287e+001  6.189771e+001  9.000000e+001
      vertex  6.111343e+001  6.305250e+001  9.000000e+001
    endloop
  endfacet
  facet normal  0.000000e+000  0.000000e+000 -1.000000e+000
    outer loop
      vertex  6.431809e+001  6.244657e+001  9.000000e+001
      vertex  6.111343e+001  6.305250e+001  9.000000e+001
      vertex  6.254847e+001  6.421620e+001  9.000000e+001
    endloop
  endfacet
  facet normal  0.000000e+000  0.000000e+000 -1.000000e+000
    outer loop
      vertex  6.254847e+001  6.421620e+001  9.000000e+001
      vertex  6.111343e+001  6.305250e+001  9.000000e+001
      vertex  5.914878e+001  6.305250e+001  9.000000e+001
    endloop
  endfacet
  facet normal  0.000000e+000  0.000000e+000 -1.000000e+000
    outer loop
      vertex  6.254847e+001  6.421620e+001  9.000000e+001
      vertex  5.914878e+001  6.305250e+001  9.000000e+001
      vertex  6.013111e+001  6.486393e+001  9.000000e+001
    endloop
  endfacet
  facet normal  0.000000e+000  0.000000e+000 -9.999999e-001
    outer loop
      vertex  6.013111e+001  6.486393e+001  9.000000e+001
      vertex  5.914878e+001  6.305250e+001  9.000000e+001
      vertex  5.771375e+001  6.421620e+001  9.000000e+001
    endloop
  endfacet
  facet normal  0.000000e+000  -0.000000e+000 -9.999999e-001
    outer loop
      vertex  5.771375e+001  6.421620e+001  9.000000e+001
      vertex  5.914878e+001  6.305250e+001  9.000000e+001
      vertex  5.755935e+001  6.189771e+001  9.000000e+001
    endloop
  endfacet
  facet normal  0.000000e+000  0.000000e+000 -9.999999e-001
    outer loop
      vertex  5.771375e+001  6.421620e+001  9.000000e+001
      vertex  5.755935e+001  6.189771e+001  9.000000e+001
      vertex  5.594412e+001  6.244657e+001  9.000000e+001
    endloop
  endfacet
  facet normal  0.000000e+000  0.000000e+000 -1.000000e+000
    outer loop
      vertex  5.594412e+001  6.244657e+001  9.000000e+001
      vertex  5.755935e+001  6.189771e+001  9.000000e+001
      vertex  5.695223e+001  6.002921e+001  9.000000e+001
    endloop
  endfacet
  facet normal  0.000000e+000  0.000000e+000 -1.000000e+000
    outer loop
      vertex  5.594412e+001  6.244657e+001  9.000000e+001
      vertex  5.695223e+001  6.002921e+001  9.000000e+001
      vertex  5.529639e+001  6.002921e+001  9.000000e+001
    endloop
  endfacet
  facet normal  0.000000e+000  0.000000e+000 -1.000000e+000
    outer loop
      vertex  5.529639e+001  6.002921e+001  9.000000e+001
      vertex  5.695223e+001  6.002921e+001  9.000000e+001
      vertex  5.755935e+001  5.816072e+001  9.000000e+001
    endloop
  endfacet
  facet normal  -0.000000e+000  0.000000e+000 -1.000000e+000
    outer loop
      vertex  5.529639e+001  6.002921e+001  9.000000e+001
      vertex  5.755935e+001  5.816072e+001  9.000000e+001
      vertex  5.594412e+001  5.761185e+001  9.000000e+001
    endloop
  endfacet
  facet normal  0.000000e+000  0.000000e+000 -1.000000e+000
    outer loop
      vertex  5.594412e+001  5.761185e+001  9.000000e+001
      vertex  5.755935e+001  5.816072e+001  9.000000e+001
      vertex  5.914878e+001  5.700592e+001  9.000000e+001
    endloop
  endfacet
  facet normal  -0.000000e+000  0.000000e+000 -1.000000e+000
    outer loop
      vertex  5.594412e+001  5.761185e+001  9.000000e+001
      vertex  5.914878e+001  5.700592e+001  9.000000e+001
      vertex  5.771375e+001  5.584222e+001  9.000000e+001
    endloop
  endfacet
  facet normal  9.510562e-001 -3.090178e-001  0.000000e+000
    outer loop
      vertex  6.330998e+001  6.002921e+001  8.000000e+001
      vertex  6.330998e+001  6.002921e+001  9.000000e+001
      vertex  6.270287e+001  5.816072e+001  8.000000e+001
    endloop
  endfacet
  facet normal  9.510562e-001 -3.090178e-001  0.000000e+000
    outer loop
      vertex  6.270287e+001  5.816072e+001  8.000000e+001
      vertex  6.330998e+001  6.002921e+001  9.000000e+001
      vertex  6.270287e+001  5.816072e+001  9.000000e+001
    endloop
  endfacet
  facet normal  5.877853e-001 -8.090169e-001  0.000000e+000
    outer loop
      vertex  6.270287e+001  5.816072e+001  8.000000e+001
      vertex  6.270287e+001  5.816072e+001  9.000000e+001
      vertex  6.111343e+001  5.700592e+001  8.000000e+001
    endloop
  endfacet
  facet normal  5.877853e-001 -8.090169e-001  0.000000e+000
    outer loop
      vertex  6.111343e+001  5.700592e+001  8.000000e+001
      vertex  6.270287e+001  5.816072e+001  9.000000e+001
      vertex  6.111343e+001  5.700592e+001  9.000000e+001
    endloop
  endfacet
  facet normal  0.000000e+000 -1.000000e+000  -0.000000e+000
    outer loop
      vertex  6.111343e+001  5.700592e+001  8.000000e+001
      vertex  6.111343e+001  5.700592e+001  9.000000e+001
      vertex  5.914878e+001  5.700592e+001  8.000000e+001
    endloop
  endfacet
  facet normal  0.000000e+000 -1.000000e+000  0.000000e+000
    outer loop
      vertex  5.914878e+001  5.700592e+001  8.000000e+001
      vertex  6.111343e+001  5.700592e+001  9.000000e+001
      vertex  5.914878e+001  5.700592e+001  9.000000e+001
    endloop
  endfacet
  facet normal -5.877853e-001 -8.090169e-001  -0.000000e+000
    outer loop
      vertex  5.914878e+001  5.700592e+001  8.000000e+001
      vertex  5.914878e+001  5.700592e+001  9.000000e+001
      vertex  5.755935e+001  5.816072e+001  8.000000e+001
    endloop
  endfacet
  facet normal -5.877853e-001 -8.090169e-001  0.000000e+000
    outer loop
      vertex  5.755935e+001  5.816072e+001  8.000000e+001
      vertex  5.914878e+001  5.700592e+001  9.000000e+001
      vertex  5.755935e+001  5.816072e+001  9.000000e+001
    endloop
  endfacet
  facet normal -9.510562e-001 -3.090178e-001  -0.000000e+000
    outer loop
      vertex  5.755935e+001  5.816072e+001  8.000000e+001
      vertex  5.755935e+001  5.816072e+001  9.000000e+001
      vertex  5.695223e+001  6.002921e+001  8.000000e+001
    endloop
  endfacet
  facet normal -9.510562e-001 -3.090178e-001  0.000000e+000
    outer loop
      vertex  5.695223e+001  6.002921e+001  8.000000e+001
      vertex  5.755935e+001  5.816072e+001  9.000000e+001
      vertex  5.695223e+001  6.002921e+001  9.000000e+001
    endloop
  endfacet
  facet normal -9.510562e-001  3.090178e-001  0.000000e+000
    outer loop
      vertex  5.695223e+001  6.002921e+001  8.000000e+001
      vertex  5.695223e+001  6.002921e+001  9.000000e+001
      vertex  5.755935e+001  6.189771e+001  8.000000e+001
    endloop
  endfacet
  facet normal -9.510562e-001  3.090178e-001  0.000000e+000
    outer loop
      vertex  5.755935e+001  6.189771e+001  8.000000e+001
      vertex  5.695223e+001  6.002921e+001  9.000000e+001
      vertex  5.755935e+001  6.189771e+001  9.000000e+001
    endloop
  endfacet
  facet normal -5.877853e-001  8.090169e-001  0.000000e+000
    outer loop
      vertex  5.755935e+001  6.189771e+001  8.000000e+001
      vertex  5.755935e+001  6.189771e+001  9.000000e+001
      vertex  5.914878e+001  6.305250e+001  8.000000e+001
    endloop
  endfacet
  facet normal -5.877853e-001  8.090169e-001  0.000000e+000
    outer loop
      vertex  5.914878e+001  6.305250e+001  8.000000e+001
      vertex  5.755935e+001  6.189771e+001  9.000000e+001
      vertex  5.914878e+001  6.305250e+001  9.000000e+001
    endloop
  endfacet
  facet normal  0.000000e+000  1.000000e+000  0.000000e+000
    outer loop
      vertex  5.914878e+001  6.305250e+001  8.000000e+001
      vertex  5.914878e+001  6.305250e+001  9.000000e+001
      vertex  6.111343e+001  6.305250e+001  8.000000e+001
    endloop
  endfacet
  facet normal  0.000000e+000  1.000000e+000  -0.000000e+000
    outer loop
      vertex  6.111343e+001  6.305250e+001  8.000000e+001
      vertex  5.914878e+001  6.305250e+001  9.000000e+001
      vertex  6.111343e+001  6.305250e+001  9.000000e+001
    endloop
  endfacet
  facet normal  5.877853e-001  8.090169e-001  0.000000e+000
    outer loop
      vertex  6.111343e+001  6.305250e+001  8.000000e+001
      vertex  6.111343e+001  6.305250e+001  9.000000e+001
      vertex  6.270287e+001  6.189771e+001  8.000000e+001
    endloop
  endfacet
  facet normal  5.877853e-001  8.090169e-001  -0.000000e+000
    outer loop
      vertex  6.270287e+001  6.189771e+001  8.000000e+001
      vertex  6.111343e+001  6.305250e+001  9.000000e+001
      vertex  6.270287e+001  6.189771e+001  9.000000e+001
    endloop
  endfacet
  facet normal  9.510562e-001  3.090178e-001  0.000000e+000
    outer loop
      vertex  6.270287e+001  6.189771e+001  8.000000e+001
      vertex  6.270287e+001  6.189771e+001  9.000000e+001
      vertex  6.330998e+001  6.002921e+001  8.000000e+001
    endloop
  endfacet
  facet normal  9.510562e-001  3.090178e-001  -0.000000e+000
    outer loop
      vertex  6.330998e+001  6.002921e+001  8.000000e+001
      vertex  6.270287e+001  6.189771e+001  9.000000e+001
      vertex  6.330998e+001  6.002921e+001  9.000000e+001
    endloop
  endfacet
  facet normal  0.000000e+000  0.000000e+000  1.000000e+000
    outer loop
      vertex  5.771375e+001  6.421620e+001  9.500000e+001
      vertex  6.254847e+001  6.421620e+001  9.500000e+001
      vertex  6.013111e+001  6.486393e+001  9.500000e+001
    endloop
  endfacet
  facet normal  -0.000000e+000  0.000000e+000  1.000000e+000
    outer loop
      vertex  6.254847e+001  6.421620e+001  9.500000e+001
      vertex  5.771375e+001  6.421620e+001  9.500000e+001
      vertex  6.431809e+001  6.244657e+001  9.500000e+001
    endloop
  endfacet
  facet normal  0.000000e+000  0.000000e+000  9.999999e-001
    outer loop
      vertex  6.431809e+001  6.244657e+001  9.500000e+001
      vertex  5.771375e+001  6.421620e+001  9.500000e+001
      vertex  5.594412e+001  6.244657e+001  9.500000e+001
    endloop
  endfacet
  facet normal  -0.000000e+000  0.000000e+000  1.000000e+000
    outer loop
      vertex  6.431809e+001  6.244657e+001  9.500000e+001
      vertex  5.594412e+001  6.244657e+001  9.500000e+001
      vertex  6.496583e+001  6.002921e+001  9.500000e+001
    endloop
  endfacet
  facet normal  0.000000e+000  0.000000e+000  1.000000e+000
    outer loop
      vertex  6.496583e+001  6.002921e+001  9.500000e+001
      vertex  5.594412e+001  6.244657e+001  9.500000e+001
      vertex  5.529639e+001  6.002921e+001  9.500000e+001
    endloop
  endfacet
  facet normal  -0.000000e+000  0.000000e+000  1.000000e+000
    outer loop
      vertex  6.496583e+001  6.002921e+001  9.500000e+001
      vertex  5.529639e+001  6.002921e+001  9.500000e+001
      vertex  6.431809e+001  5.761185e+001  9.500000e+001
    endloop
  endfacet
  facet normal  0.000000e+000  0.000000e+000  1.000000e+000
    outer loop
      vertex  6.431809e+001  5.761185e+001  9.500000e+001
      vertex  5.529639e+001  6.002921e+001  9.500000e+001
      vertex  5.594412e+001  5.761185e+001  9.500000e+001
    endloop
  endfacet
  facet normal  -0.000000e+000  0.000000e+000  9.999999e-001
    outer loop
      vertex  6.431809e+001  5.761185e+001  9.500000e+001
      vertex  5.594412e+001  5.761185e+001  9.500000e+001
      vertex  6.254847e+001  5.584222e+001  9.500000e+001
    endloop
  endfacet
  facet normal  0.000000e+000  0.000000e+000  1.000000e+000
    outer loop
      vertex  6.254847e+001  5.584222e+001  9.500000e+001
      vertex  5.594412e+001  5.761185e+001  9.500000e+001
      vertex  5.771375e+001  5.584222e+001  9.500000e+001
    endloop
  endfacet
  facet normal  -0.000000e+000  0.000000e+000  1.000000e+000
    outer loop
      vertex  6.254847e+001  5.584222e+001  9.500000e+001
      vertex  5.771375e+001  5.584222e+001  9.500000e+001
      vertex  6.013111e+001  5.519450e+001  9.500000e+001
    endloop
  endfacet
  facet normal -9.659259e-001  2.588186e-001  0.000000e+000
    outer loop
      vertex  5.529639e+001  6.002921e+001  9.000000e+001
      vertex  5.529639e+001  6.002921e+001  9.500000e+001
      vertex  5.594412e+001  6.244657e+001  9.000000e+001
    endloop
  endfacet
  facet normal -9.659259e-001  2.588186e-001  0.000000e+000
    outer loop
      vertex  5.594412e+001  6.244657e+001  9.000000e+001
      vertex  5.529639e+001  6.002921e+001  9.500000e+001
      vertex  5.594412e+001  6.244657e+001  9.500000e+001
    endloop
  endfacet
  facet normal -7.071068e-001  7.071068e-001  0.000000e+000
    outer loop
      vertex  5.594412e+001  6.244657e+001  9.000000e+001
      vertex  5.594412e+001  6.244657e+001  9.500000e+001
      vertex  5.771375e+001  6.421620e+001  9.000000e+001
    endloop
  endfacet
  facet normal -7.071068e-001  7.071068e-001  0.000000e+000
    outer loop
      vertex  5.771375e+001  6.421620e+001  9.000000e+001
      vertex  5.594412e+001  6.244657e+001  9.500000e+001
      vertex  5.771375e+001  6.421620e+001  9.500000e+001
    endloop
  endfacet
  facet normal -2.588186e-001  9.659259e-001  0.000000e+000
    outer loop
      vertex  5.771375e+001  6.421620e+001  9.000000e+001
      vertex  5.771375e+001  6.421620e+001  9.500000e+001
      vertex  6.013111e+001  6.486393e+001  9.000000e+001
    endloop
  endfacet
  facet normal -2.588186e-001  9.659259e-001  0.000000e+000
    outer loop
      vertex  6.013111e+001  6.486393e+001  9.000000e+001
      vertex  5.771375e+001  6.421620e+001  9.500000e+001
      vertex  6.013111e+001  6.486393e+001  9.500000e+001
    endloop
  endfacet
  facet normal  2.588186e-001  9.659259e-001  0.000000e+000
    outer loop
      vertex  6.013111e+001  6.486393e+001  9.000000e+001
      vertex  6.013111e+001  6.486393e+001  9.500000e+001
      vertex  6.254847e+001  6.421620e+001  9.000000e+001
    endloop
  endfacet
  facet normal  2.588186e-001  9.659259e-001  -0.000000e+000
    outer loop
      vertex  6.254847e+001  6.421620e+001  9.000000e+001
      vertex  6.013111e+001  6.486393e+001  9.500000e+001
      vertex  6.254847e+001  6.421620e+001  9.500000e+001
    endloop
  endfacet
  facet normal  7.071075e-001  7.071060e-001  0.000000e+000
    outer loop
      vertex  6.254847e+001  6.421620e+001  9.000000e+001
      vertex  6.254847e+001  6.421620e+001  9.500000e+001
      vertex  6.431809e+001  6.244657e+001  9.000000e+001
    endloop
  endfacet
  facet normal  7.071075e-001  7.071060e-001  -0.000000e+000
    outer loop
      vertex  6.431809e+001  6.244657e+001  9.000000e+001
      vertex  6.254847e+001  6.421620e+001  9.500000e+001
      vertex  6.431809e+001  6.244657e+001  9.500000e+001
    endloop
  endfacet
  facet normal  9.659252e-001  2.588214e-001  0.000000e+000
    outer loop
      vertex  6.431809e+001  6.244657e+001  9.000000e+001
      vertex  6.431809e+001  6.244657e+001  9.500000e+001
      vertex  6.496583e+001  6.002921e+001  9.000000e+001
    endloop
  endfacet
  facet normal  9.659252e-001  2.588214e-001  -0.000000e+000
    outer loop
      vertex  6.496583e+001  6.002921e+001  9.000000e+001
      vertex  6.431809e+001  6.244657e+001  9.500000e+001
      vertex  6.496583e+001  6.002921e+001  9.500000e+001
    endloop
  endfacet
  facet normal  9.659252e-001 -2.588214e-001  0.000000e+000
    outer loop
      vertex  6.496583e+001  6.002921e+001  9.000000e+001
      vertex  6.496583e+001  6.002921e+001  9.500000e+001
      vertex  6.431809e+001  5.761185e+001  9.000000e+001
    endloop
  endfacet
  facet normal  9.659252e-001 -2.588214e-001  0.000000e+000
    outer loop
      vertex  6.431809e+001  5.761185e+001  9.000000e+001
      vertex  6.496583e+001  6.002921e+001  9.500000e+001
      vertex  6.431809e+001  5.761185e+001  9.500000e+001
    endloop
  endfacet
  facet normal  7.071075e-001 -7.071060e-001  0.000000e+000
    outer loop
      vertex  6.431809e+001  5.761185e+001  9.000000e+001
      vertex  6.431809e+001  5.761185e+001  9.500000e+001
      vertex  6.254847e+001  5.584222e+001  9.000000e+001
    endloop
  endfacet
  facet normal  7.071075e-001 -7.071060e-001  0.000000e+000
    outer loop
      vertex  6.254847e+001  5.584222e+001  9.000000e+001
      vertex  6.431809e+001  5.761185e+001  9.500000e+001
      vertex  6.254847e+001  5.584222e+001  9.500000e+001
    endloop
  endfacet
  facet normal  2.588186e-001 -9.659259e-001  0.000000e+000
    outer loop
      vertex  6.254847e+001  5.584222e+001  9.000000e+001
      vertex  6.254847e+001  5.584222e+001  9.500000e+001
      vertex  6.013111e+001  5.519450e+001  9.000000e+001
    endloop
  endfacet
  facet normal  2.588186e-001 -9.659259e-001  0.000000e+000
    outer loop
      vertex  6.013111e+001  5.519450e+001  9.000000e+001
      vertex  6.254847e+001  5.584222e+001  9.500000e+001
      vertex  6.013111e+001  5.519450e+001  9.500000e+001
    endloop
  endfacet
  facet normal -2.588186e-001 -9.659259e-001  -0.000000e+000
    outer loop
      vertex  6.013111e+001  5.519450e+001  9.000000e+001
      vertex  6.013111e+001  5.519450e+001  9.500000e+001
      vertex  5.771375e+001  5.584222e+001  9.000000e+001
    endloop
  endfacet
  facet normal -2.588186e-001 -9.659259e-001  0.000000e+000
    outer loop
      vertex  5.771375e+001  5.584222e+001  9.000000e+001
      vertex  6.013111e+001  5.519450e+001  9.500000e+001
      vertex  5.771375e+001  5.584222e+001  9.500000e+001
    endloop
  endfacet
  facet normal -7.071068e-001 -7.071068e-001  -0.000000e+000
    outer loop
      vertex  5.771375e+001  5.584222e+001  9.000000e+001
      vertex  5.771375e+001  5.584222e+001  9.500000e+001
      vertex  5.594412e+001  5.761185e+001  9.000000e+001
    endloop
  endfacet
  facet normal -7.071068e-001 -7.071068e-001  0.000000e+000
    outer loop
      vertex  5.594412e+001  5.761185e+001  9.000000e+001
      vertex  5.771375e+001  5.584222e+001  9.500000e+001
      vertex  5.594412e+001  5.761185e+001  9.500000e+001
    endloop
  endfacet
  facet normal -9.659259e-001 -2.588186e-001  -0.000000e+000
    outer loop
      vertex  5.594412e+001  5.761185e+001  9.000000e+001
      vertex  5.594412e+001  5.761185e+001  9.500000e+001
      vertex  5.529639e+001  6.002921e+001  9.000000e+001
    endloop
  endfacet
  facet normal -9.659259e-001 -2.588186e-001  0.000000e+000
    outer loop
      vertex  5.529639e+001  6.002921e+001  9.000000e+001
      vertex  5.594412e+001  5.761185e+001  9.500000e+001
      vertex  5.529639e+001  6.002921e+001  9.500000e+001
    endloop
  endfacet
  facet normal  0.000000e+000  0.000000e+000  1.000000e+000
    outer loop
      vertex  6.013111e+001  6.486393e+001  8.000000e+001
      vertex  5.914878e+001  6.305250e+001  8.000000e+001
      vertex  6.254847e+001  6.421620e+001  8.000000e+001
    endloop
  endfacet
  facet normal  0.000000e+000  0.000000e+000  1.000000e+000
    outer loop
      vertex  6.254847e+001  6.421620e+001  8.000000e+001
      vertex  5.914878e+001  6.305250e+001  8.000000e+001
      vertex  6.111343e+001  6.305250e+001  8.000000e+001
    endloop
  endfacet
  facet normal  -0.000000e+000  0.000000e+000  1.000000e+000
    outer loop
      vertex  6.254847e+001  6.421620e+001  8.000000e+001
      vertex  6.111343e+001  6.305250e+001  8.000000e+001
      vertex  6.431809e+001  6.244657e+001  8.000000e+001
    endloop
  endfacet
  facet normal  0.000000e+000  0.000000e+000  1.000000e+000
    outer loop
      vertex  6.431809e+001  6.244657e+001  8.000000e+001
      vertex  6.111343e+001  6.305250e+001  8.000000e+001
      vertex  6.270287e+001  6.189771e+001  8.000000e+001
    endloop
  endfacet
  facet normal  -0.000000e+000  0.000000e+000  1.000000e+000
    outer loop
      vertex  6.431809e+001  6.244657e+001  8.000000e+001
      vertex  6.270287e+001  6.189771e+001  8.000000e+001
      vertex  6.496583e+001  6.002921e+001  8.000000e+001
    endloop
  endfacet
  facet normal  0.000000e+000  0.000000e+000  1.000000e+000
    outer loop
      vertex  6.496583e+001  6.002921e+001  8.000000e+001
      vertex  6.270287e+001  6.189771e+001  8.000000e+001
      vertex  6.330998e+001  6.002921e+001  8.000000e+001
    endloop
  endfacet
  facet normal  -0.000000e+000  0.000000e+000  1.000000e+000
    outer loop
      vertex  6.496583e+001  6.002921e+001  8.000000e+001
      vertex  6.330998e+001  6.002921e+001  8.000000e+001
      vertex  6.431809e+001  5.761185e+001  8.000000e+001
    endloop
  endfacet
  facet normal  0.000000e+000  0.000000e+000  9.999999e-001
    outer loop
      vertex  6.431809e+001  5.761185e+001  8.000000e+001
      vertex  6.330998e+001  6.002921e+001  8.000000e+001
      vertex  6.270287e+001  5.816072e+001  8.000000e+001
    endloop
  endfacet
  facet normal  0.000000e+000  0.000000e+000  1.000000e+000
    outer loop
      vertex  6.431809e+001  5.761185e+001  8.000000e+001
      vertex  6.270287e+001  5.816072e+001  8.000000e+001
      vertex  6.254847e+001  5.584222e+001  8.000000e+001
    endloop
  endfacet
  facet normal  0.000000e+000  -0.000000e+000  9.999999e-001
    outer loop
      vertex  6.254847e+001  5.584222e+001  8.000000e+001
      vertex  6.270287e+001  5.816072e+001  8.000000e+001
      vertex  6.111343e+001  5.700592e+001  8.000000e+001
    endloop
  endfacet
  facet normal  0.000000e+000  0.000000e+000  9.999999e-001
    outer loop
      vertex  6.254847e+001  5.584222e+001  8.000000e+001
      vertex  6.111343e+001  5.700592e+001  8.000000e+001
      vertex  6.013111e+001  5.519450e+001  8.000000e+001
    endloop
  endfacet
  facet normal  0.000000e+000  -0.000000e+000  1.000000e+000
    outer loop
      vertex  6.013111e+001  5.519450e+001  8.000000e+001
      vertex  6.111343e+001  5.700592e+001  8.000000e+001
      vertex  5.914878e+001  5.700592e+001  8.000000e+001
    endloop
  endfacet
  facet normal  0.000000e+000  0.000000e+000  9.999999e-001
    outer loop
      vertex  6.013111e+001  5.519450e+001  8.000000e+001
      vertex  5.914878e+001  5.700592e+001  8.000000e+001
      vertex  5.771375e+001  5.584222e+001  8.000000e+001
    endloop
  endfacet
  facet normal  0.000000e+000  0.000000e+000  1.000000e+000
    outer loop
      vertex  5.771375e+001  5.584222e+001  8.000000e+001
      vertex  5.914878e+001  5.700592e+001  8.000000e+001
      vertex  5.594412e+001  5.761185e+001  8.000000e+001
    endloop
  endfacet
  facet normal  -0.000000e+000  0.000000e+000  1.000000e+000
    outer loop
      vertex  5.594412e+001  5.761185e+001  8.000000e+001
      vertex  5.914878e+001  5.700592e+001  8.000000e+001
      vertex  5.755935e+001  5.816072e+001  8.000000e+001
    endloop
  endfacet
  facet normal  0.000000e+000  0.000000e+000  1.000000e+000
    outer loop
      vertex  5.594412e+001  5.761185e+001  8.000000e+001
      vertex  5.755935e+001  5.816072e+001  8.000000e+001
      vertex  5.529639e+001  6.002921e+001  8.000000e+001
    endloop
  endfacet
  facet normal  -0.000000e+000  0.000000e+000  1.000000e+000
    outer loop
      vertex  5.529639e+001  6.002921e+001  8.000000e+001
      vertex  5.755935e+001  5.816072e+001  8.000000e+001
      vertex  5.695223e+001  6.002921e+001  8.000000e+001
    endloop
  endfacet
  facet normal  0.000000e+000  0.000000e+000  1.000000e+000
    outer loop
      vertex  5.529639e+001  6.002921e+001  8.000000e+001
      vertex  5.695223e+001  6.002921e+001  8.000000e+001
      vertex  5.594412e+001  6.244657e+001  8.000000e+001
    endloop
  endfacet
  facet normal  0.000000e+000  0.000000e+000  1.000000e+000
    outer loop
      vertex  5.594412e+001  6.244657e+001  8.000000e+001
      vertex  5.695223e+001  6.002921e+001  8.000000e+001
      vertex  5.755935e+001  6.189771e+001  8.000000e+001
    endloop
  endfacet
  facet normal  0.000000e+000  -0.000000e+000  9.999999e-001
    outer loop
      vertex  5.594412e+001  6.244657e+001  8.000000e+001
      vertex  5.755935e+001  6.189771e+001  8.000000e+001
      vertex  5.771375e+001  6.421620e+001  8.000000e+001
    endloop
  endfacet
  facet normal  0.000000e+000  0.000000e+000  9.999999e-001
    outer loop
      vertex  5.771375e+001  6.421620e+001  8.000000e+001
      vertex  5.755935e+001  6.189771e+001  8.000000e+001
      vertex  5.914878e+001  6.305250e+001  8.000000e+001
    endloop
  endfacet
  facet normal  0.000000e+000  -0.000000e+000  9.999999e-001
    outer loop
      vertex  5.771375e+001  6.421620e+001  8.000000e+001
      vertex  5.914878e+001  6.305250e+001  8.000000e+001
      vertex  6.013111e+001  6.486393e+001  8.000000e+001
    endloop
  endfacet
  facet normal  0.000000e+000  0.000000e+000  9.999999e-001
    outer loop
      vertex  5.001684e+001  7.030521e+001  1.000000e+001
      vertex  5.001684e+001  5.030521e+001  1.000000e+001
      vertex  5.594412e+001  6.244657e+001  1.000000e+001
    endloop
  endfacet
  facet normal  0.000000e+000  -0.000000e+000  1.000000e+000
    outer loop
      vertex  5.001684e+001  7.030521e+001  1.000000e+001
      vertex  5.594412e+001  6.244657e+001  1.000000e+001
      vertex  5.771375e+001  6.421620e+001  1.000000e+001
    endloop
  endfacet
  facet normal  0.000000e+000  -0.000000e+000  1.000000e+000
    outer loop
      vertex  5.001684e+001  7.030521e+001  1.000000e+001
      vertex  5.771375e+001  6.421620e+001  1.000000e+001
      vertex  6.013111e+001  6.486393e+001  1.000000e+001
    endloop
  endfacet
  facet normal  0.000000e+000  -0.000000e+000  1.000000e+000
    outer loop
      vertex  5.001684e+001  7.030521e+001  1.000000e+001
      vertex  6.013111e+001  6.486393e+001  1.000000e+001
      vertex  7.001684e+001  7.030521e+001  1.000000e+001
    endloop
  endfacet
  facet normal  0.000000e+000  0.000000e+000  1.000000e+000
    outer loop
      vertex  5.001684e+001  5.030521e+001  1.000000e+001
      vertex  7.001684e+001  5.030521e+001  1.000000e+001
      vertex  6.013111e+001  5.519450e+001  1.000000e+001
    endloop
  endfacet
  facet normal  0.000000e+000  0.000000e+000  1.000000e+000
    outer loop
      vertex  5.001684e+001  5.030521e+001  1.000000e+001
      vertex  6.013111e+001  5.519450e+001  1.000000e+001
      vertex  5.771375e+001  5.584222e+001  1.000000e+001
    endloop
  endfacet
  facet normal  0.000000e+000  0.000000e+000  1.000000e+000
    outer loop
      vertex  5.001684e+001  5.030521e+001  1.000000e+001
      vertex  5.771375e+001  5.584222e+001  1.000000e+001
      vertex  5.594412e+001  5.761185e+001  1.000000e+001
    endloop
  endfacet
  facet normal  0.000000e+000  0.000000e+000  1.000000e+000
    outer loop
      vertex  5.001684e+001  5.030521e+001  1.000000e+001
      vertex  5.594412e+001  5.761185e+001  1.000000e+001
      vertex  5.529639e+001  6.002921e+001  1.000000e+001
    endloop
  endfacet
  facet normal  0.000000e+000  -0.000000e+000  1.000000e+000
    outer loop
      vertex  5.001684e+001  5.030521e+001  1.000000e+001
      vertex  5.529639e+001  6.002921e+001  1.000000e+001
      vertex  5.594412e+001  6.244657e+001  1.000000e+001
    endloop
  endfacet
  facet normal  0.000000e+000  0.000000e+000  9.999999e-001
    outer loop
      vertex  7.001684e+001  5.030521e+001  1.000000e+001
      vertex  6.431809e+001  6.244657e+001  1.000000e+001
      vertex  6.496583e+001  6.002921e+001  1.000000e+001
    endloop
  endfacet
  facet normal  0.000000e+000  0.000000e+000  1.000000e+000
    outer loop
      vertex  7.001684e+001  5.030521e+001  1.000000e+001
      vertex  6.496583e+001  6.002921e+001  1.000000e+001
      vertex  6.431809e+001  5.761185e+001  1.000000e+001
    endloop
  endfacet
  facet normal  0.000000e+000  0.000000e+000  9.999999e-001
    outer loop
      vertex  7.001684e+001  5.030521e+001  1.000000e+001
      vertex  6.431809e+001  5.761185e+001  1.000000e+001
      vertex  6.254847e+001  5.584222e+001  1.000000e+001
    endloop
  endfacet
  facet normal  0.000000e+000  0.000000e+000  1.000000e+000
    outer loop
      vertex  7.001684e+001  5.030521e+001  1.000000e+001
      vertex  6.254847e+001  5.584222e+001  1.000000e+001
      vertex  6.013111e+001  5.519450e+001  1.000000e+001
    endloop
  endfacet
  facet normal  -0.000000e+000  0.000000e+000  1.000000e+000
    outer loop
      vertex  7.001684e+001  7.030521e+001  1.000000e+001
      vertex  6.013111e+001  6.486393e+001  1.000000e+001
      vertex  6.254847e+001  6.421620e+001  1.000000e+001
    endloop
  endfacet
  facet normal  -0.000000e+000  0.000000e+000  1.000000e+000
    outer loop
      vertex  7.001684e+001  7.030521e+001  1.000000e+001
      vertex  6.254847e+001  6.421620e+001  1.000000e+001
      vertex  6.431809e+001  6.244657e+001  1.000000e+001
    endloop
  endfacet
  facet normal  -0.000000e+000  0.000000e+000  1.000000e+000
    outer loop
      vertex  7.001684e+001  7.030521e+001  1.000000e+001
      vertex  6.431809e+001  6.244657e+001  1.000000e+001
      vertex  7.001684e+001  5.030521e+001  1.000000e+001
    endloop
  endfacet
  facet normal  9.659252e-001 -2.588214e-001  0.000000e+000
    outer loop
      vertex  6.496583e+001  6.002921e+001  1.000000e+001
      vertex  6.496583e+001  6.002921e+001  8.000000e+001
      vertex  6.431809e+001  5.761185e+001  1.000000e+001
    endloop
  endfacet
  facet normal  9.659252e-001 -2.588214e-001  0.000000e+000
    outer loop
      vertex  6.431809e+001  5.761185e+001  1.000000e+001
      vertex  6.496583e+001  6.002921e+001  8.000000e+001
      vertex  6.431809e+001  5.761185e+001  8.000000e+001
    endloop
  endfacet
  facet normal  7.071075e-001 -7.071060e-001  0.000000e+000
    outer loop
      vertex  6.431809e+001  5.761185e+001  1.000000e+001
      vertex  6.431809e+001  5.761185e+001  8.000000e+001
      vertex  6.254847e+001  5.584222e+001  1.000000e+001
    endloop
  endfacet
  facet normal  7.071075e-001 -7.071060e-001  0.000000e+000
    outer loop
      vertex  6.254847e+001  5.584222e+001  1.000000e+001
      vertex  6.431809e+001  5.761185e+001  8.000000e+001
      vertex  6.254847e+001  5.584222e+001  8.000000e+001
    endloop
  endfacet
  facet normal  2.588186e-001 -9.659259e-001  0.000000e+000
    outer loop
      vertex  6.254847e+001  5.584222e+001  1.000000e+001
      vertex  6.254847e+001  5.584222e+001  8.000000e+001
      vertex  6.013111e+001  5.519450e+001  1.000000e+001
    endloop
  endfacet
  facet normal  2.588186e-001 -9.659259e-001  0.000000e+000
    outer loop
      vertex  6.013111e+001  5.519450e+001  1.000000e+001
      vertex  6.254847e+001  5.584222e+001  8.000000e+001
      vertex  6.013111e+001  5.519450e+001  8.000000e+001
    endloop
  endfacet
  facet normal -2.588186e-001 -9.659259e-001  -0.000000e+000
    outer loop
      vertex  6.013111e+001  5.519450e+001  1.000000e+001
      vertex  6.013111e+001  5.519450e+001  8.000000e+001
      vertex  5.771375e+001  5.584222e+001  1.000000e+001
    endloop
  endfacet
  facet normal -2.588186e-001 -9.659259e-001  0.000000e+000
    outer loop
      vertex  5.771375e+001  5.584222e+001  1.000000e+001
      vertex  6.013111e+001  5.519450e+001  8.000000e+001
      vertex  5.771375e+001  5.584222e+001  8.000000e+001
    endloop
  endfacet
  facet normal -7.071068e-001 -7.071068e-001  -0.000000e+000
    outer loop
      vertex  5.771375e+001  5.584222e+001  1.000000e+001
      vertex  5.771375e+001  5.584222e+001  8.000000e+001
      vertex  5.594412e+001  5.761185e+001  1.000000e+001
    endloop
  endfacet
  facet normal -7.071068e-001 -7.071068e-001  0.000000e+000
    outer loop
      vertex  5.594412e+001  5.761185e+001  1.000000e+001
      vertex  5.771375e+001  5.584222e+001  8.000000e+001
      vertex  5.594412e+001  5.761185e+001  8.000000e+001
    endloop
  endfacet
  facet normal -9.659259e-001 -2.588186e-001  -0.000000e+000
    outer loop
      vertex  5.594412e+001  5.761185e+001  1.000000e+001
      vertex  5.594412e+001  5.761185e+001  8.000000e+001
      vertex  5.529639e+001  6.002921e+001  1.000000e+001
    endloop
  endfacet
  facet normal -9.659259e-001 -2.588186e-001  0.000000e+000
    outer loop
      vertex  5.529639e+001  6.002921e+001  1.000000e+001
      vertex  5.594412e+001  5.761185e+001  8.000000e+001
      vertex  5.529639e+001  6.002921e+001  8.000000e+001
    endloop
  endfacet
  facet normal -9.659259e-001  2.588186e-001  0.000000e+000
    outer loop
      vertex  5.529639e+001  6.002921e+001  1.000000e+001
      vertex  5.529639e+001  6.002921e+001  8.000000e+001
      vertex  5.594412e+001  6.244657e+001  1.000000e+001
    endloop
  endfacet
  facet normal -9.659259e-001  2.588186e-001  0.000000e+000
    outer loop
      vertex  5.594412e+001  6.244657e+001  1.000000e+001
      vertex  5.529639e+001  6.002921e+001  8.000000e+001
      vertex  5.594412e+001  6.244657e+001  8.000000e+001
    endloop
  endfacet
  facet normal -7.071068e-001  7.071068e-001  0.000000e+000
    outer loop
      vertex  5.594412e+001  6.244657e+001  1.000000e+001
      vertex  5.594412e+001  6.244657e+001  8.000000e+001
      vertex  5.771375e+001  6.421620e+001  1.000000e+001
    endloop
  endfacet
  facet normal -7.071068e-001  7.071068e-001  0.000000e+000
    outer loop
      vertex  5.771375e+001  6.421620e+001  1.000000e+001
      vertex  5.594412e+001  6.244657e+001  8.000000e+001
      vertex  5.771375e+001  6.421620e+001  8.000000e+001
    endloop
  endfacet
  facet normal -2.588186e-001  9.659259e-001  0.000000e+000
    outer loop
      vertex  5.771375e+001  6.421620e+001  1.000000e+001
      vertex  5.771375e+001  6.421620e+001  8.000000e+001
      vertex  6.013111e+001  6.486393e+001  1.000000e+001
    endloop
  endfacet
  facet normal -2.588186e-001  9.659259e-001  0.000000e+000
    outer loop
      vertex  6.013111e+001  6.486393e+001  1.000000e+001
      vertex  5.771375e+001  6.421620e+001  8.000000e+001
      vertex  6.013111e+001  6.486393e+001  8.000000e+001
    endloop
  endfacet
  facet normal  2.588186e-001  9.659259e-001  0.000000e+000
    outer loop
      vertex  6.013111e+001  6.486393e+001  1.000000e+001
      vertex  6.013111e+001  6.486393e+001  8.000000e+001
      vertex  6.254847e+001  6.421620e+001  1.000000e+001
    endloop
  endfacet
  facet normal  2.588186e-001  9.659259e-001  -0.000000e+000
    outer loop
      vertex  6.254847e+001  6.421620e+001  1.000000e+001
      vertex  6.013111e+001  6.486393e+001  8.000000e+001
      vertex  6.254847e+001  6.421620e+001  8.000000e+001
    endloop
  endfacet
  facet normal  7.071075e-001  7.071060e-001  0.000000e+000
    outer loop
      vertex  6.254847e+001  6.421620e+001  1.000000e+001
      vertex  6.254847e+001  6.421620e+001  8.000000e+001
      vertex  6.431809e+001  6.244657e+001  1.000000e+001
    endloop
  endfacet
  facet normal  7.071075e-001  7.071060e-001  -0.000000e+000
    outer loop
      vertex  6.431809e+001  6.244657e+001  1.000000e+001
      vertex  6.254847e+001  6.421620e+001  8.000000e+001
      vertex  6.431809e+001  6.244657e+001  8.000000e+001
    endloop
  endfacet
  facet normal  9.659252e-001  2.588214e-001  0.000000e+000
    outer loop
      vertex  6.431809e+001  6.244657e+001  1.000000e+001
      vertex  6.431809e+001  6.244657e+001  8.000000e+001
      vertex  6.496583e+001  6.002921e+001  1.000000e+001
    endloop
  endfacet
  facet normal  9.659252e-001  2.588214e-001  -0.000000e+000
    outer loop
      vertex  6.496583e+001  6.002921e+001  1.000000e+001
      vertex  6.431809e+001  6.244657e+001  8.000000e+001
      vertex  6.496583e+001  6.002921e+001  8.000000e+001
    endloop
  endfacet
  facet normal  0.000000e+000  0.000000e+000  1.000000e+000
    outer loop
      vertex -1.136868e-013 -1.404443e+001  5.000000e+000
      vertex  1.500000e+001 -2.000000e+000  5.000000e+000
      vertex -5.684342e-014 -2.000000e+000  5.000000e+000
    endloop
  endfacet
  facet normal  0.000000e+000  0.000000e+000  1.000000e+000
    outer loop
      vertex  3.873324e+000  1.150000e+002  5.000000e+000
      vertex  1.500000e+001  1.170000e+002  5.000000e+000
      vertex  3.873324e+000  1.170000e+002  5.000000e+000
    endloop
  endfacet
  facet normal  0.000000e+000  0.000000e+000  1.000000e+000
    outer loop
      vertex  1.500000e+001  1.220000e+002  5.000000e+000
      vertex -5.684342e-014  1.340444e+002  5.000000e+000
      vertex  0.000000e+000  1.220000e+002  5.000000e+000
    endloop
  endfacet
  facet normal  0.000000e+000  0.000000e+000  1.000000e+000
    outer loop
      vertex  3.873324e+000  5.000000e+000  5.000000e+000
      vertex  3.873324e+000  3.000000e+000  5.000000e+000
      vertex  1.500000e+001  3.000000e+000  5.000000e+000
    endloop
  endfacet
  facet normal  0.000000e+000  -0.000000e+000  1.000000e+000
    outer loop
      vertex  3.873324e+000  5.000000e+000  5.000000e+000
      vertex  1.500000e+001  3.000000e+000  5.000000e+000
      vertex  5.001684e+001  5.030521e+001  5.000000e+000
    endloop
  endfacet
  facet normal  0.000000e+000  0.000000e+000  1.000000e+000
    outer loop
      vertex  3.873324e+000  5.000000e+000  5.000000e+000
      vertex  5.001684e+001  5.030521e+001  5.000000e+000
      vertex  0.000000e+000  5.000000e+000  5.000000e+000
    endloop
  endfacet
  facet normal  0.000000e+000  0.000000e+000  1.000000e+000
    outer loop
      vertex  1.500000e+001 -2.000000e+000  5.000000e+000
      vertex  1.050000e+002  3.000000e+000  5.000000e+000
      vertex  7.001684e+001  5.030521e+001  5.000000e+000
    endloop
  endfacet
  facet normal  0.000000e+000  0.000000e+000  1.000000e+000
    outer loop
      vertex  1.500000e+001 -2.000000e+000  5.000000e+000
      vertex  7.001684e+001  5.030521e+001  5.000000e+000
      vertex  5.001684e+001  5.030521e+001  5.000000e+000
    endloop
  endfacet
  facet normal  0.000000e+000  0.000000e+000  1.000000e+000
    outer loop
      vertex  1.500000e+001 -2.000000e+000  5.000000e+000
      vertex  5.001684e+001  5.030521e+001  5.000000e+000
      vertex  1.500000e+001  3.000000e+000  5.000000e+000
    endloop
  endfacet
  facet normal  0.000000e+000  -0.000000e+000  1.000000e+000
    outer loop
      vertex  5.001684e+001  7.030521e+001  5.000000e+000
      vertex  7.001684e+001  7.030521e+001  5.000000e+000
      vertex  1.050000e+002  1.220000e+002  5.000000e+000
    endloop
  endfacet
  facet normal  0.000000e+000  0.000000e+000  1.000000e+000
    outer loop
      vertex  5.001684e+001  7.030521e+001  5.000000e+000
      vertex  1.050000e+002  1.220000e+002  5.000000e+000
      vertex  1.500000e+001  1.220000e+002  5.000000e+000
    endloop
  endfacet
  facet normal  0.000000e+000  0.000000e+000  1.000000e+000
    outer loop
      vertex  5.001684e+001  7.030521e+001  5.000000e+000
      vertex  1.500000e+001  1.220000e+002  5.000000e+000
      vertex  1.500000e+001  1.170000e+002  5.000000e+000
    endloop
  endfacet
  facet normal  0.000000e+000  0.000000e+000  1.000000e+000
    outer loop
      vertex  5.001684e+001  7.030521e+001  5.000000e+000
      vertex  1.500000e+001  1.170000e+002  5.000000e+000
      vertex  3.873324e+000  1.150000e+002  5.000000e+000
    endloop
  endfacet
  facet normal  0.000000e+000  0.000000e+000  1.000000e+000
    outer loop
      vertex  5.001684e+001  7.030521e+001  5.000000e+000
      vertex  3.873324e+000  1.150000e+002  5.000000e+000
      vertex  0.000000e+000  1.150000e+002  5.000000e+000
    endloop
  endfacet
  facet normal  0.000000e+000  0.000000e+000  9.999999e-001
    outer loop
      vertex  5.001684e+001  7.030521e+001  5.000000e+000
      vertex  0.000000e+000  1.150000e+002  5.000000e+000
      vertex  0.000000e+000  5.000000e+000  5.000000e+000
    endloop
  endfacet
  facet normal  0.000000e+000  0.000000e+000  1.000000e+000
    outer loop
      vertex  5.001684e+001  7.030521e+001  5.000000e+000
      vertex  0.000000e+000  5.000000e+000  5.000000e+000
      vertex  5.001684e+001  5.030521e+001  5.000000e+000
    endloop
  endfacet
  facet normal  -0.000000e+000  0.000000e+000  1.000000e+000
    outer loop
      vertex  7.001684e+001  7.030521e+001  5.000000e+000
      vertex  7.001684e+001  5.030521e+001  5.000000e+000
      vertex  1.200000e+002  5.000000e+000  5.000000e+000
    endloop
  endfacet
  facet normal  0.000000e+000  -0.000000e+000  1.000000e+000
    outer loop
      vertex  7.001684e+001  7.030521e+001  5.000000e+000
      vertex  1.200000e+002  5.000000e+000  5.000000e+000
      vertex  1.200000e+002  1.150000e+002  5.000000e+000
    endloop
  endfacet
  facet normal  0.000000e+000  0.000000e+000  1.000000e+000
    outer loop
      vertex  7.001684e+001  7.030521e+001  5.000000e+000
      vertex  1.200000e+002  1.150000e+002  5.000000e+000
      vertex  1.170000e+002  1.150000e+002  5.000000e+000
    endloop
  endfacet
  facet normal  0.000000e+000  -0.000000e+000  1.000000e+000
    outer loop
      vertex  7.001684e+001  7.030521e+001  5.000000e+000
      vertex  1.170000e+002  1.150000e+002  5.000000e+000
      vertex  1.170000e+002  1.170000e+002  5.000000e+000
    endloop
  endfacet
  facet normal  0.000000e+000  0.000000e+000  1.000000e+000
    outer loop
      vertex  7.001684e+001  7.030521e+001  5.000000e+000
      vertex  1.170000e+002  1.170000e+002  5.000000e+000
      vertex  1.050000e+002  1.170000e+002  5.000000e+000
    endloop
  endfacet
  facet normal  0.000000e+000  -0.000000e+000  1.000000e+000
    outer loop
      vertex  7.001684e+001  7.030521e+001  5.000000e+000
      vertex  1.050000e+002  1.170000e+002  5.000000e+000
      vertex  1.050000e+002  1.220000e+002  5.000000e+000
    endloop
  endfacet
  facet normal  0.000000e+000  0.000000e+000  1.000000e+000
    outer loop
      vertex  1.050000e+002  3.000000e+000  5.000000e+000
      vertex  1.170000e+002  3.000000e+000  5.000000e+000
      vertex  7.001684e+001  5.030521e+001  5.000000e+000
    endloop
  endfacet
  facet normal  0.000000e+000  0.000000e+000  1.000000e+000
    outer loop
      vertex  7.001684e+001  5.030521e+001  5.000000e+000
      vertex  1.170000e+002  3.000000e+000  5.000000e+000
      vertex  1.170000e+002  5.000000e+000  5.000000e+000
    endloop
  endfacet
  facet normal  0.000000e+000  -0.000000e+000  1.000000e+000
    outer loop
      vertex  7.001684e+001  5.030521e+001  5.000000e+000
      vertex  1.170000e+002  5.000000e+000  5.000000e+000
      vertex  1.200000e+002  5.000000e+000  5.000000e+000
    endloop
  endfacet
  facet normal  0.000000e+000  0.000000e+000  1.000000e+000
    outer loop
      vertex  1.200000e+002 -1.404443e+001  5.000000e+000
      vertex  1.200000e+002 -2.000000e+000  5.000000e+000
      vertex -1.136868e-013 -1.404443e+001  5.000000e+000
    endloop
  endfacet
  facet normal  0.000000e+000  0.000000e+000  1.000000e+000
    outer loop
      vertex -1.136868e-013 -1.404443e+001  5.000000e+000
      vertex  1.200000e+002 -2.000000e+000  5.000000e+000
      vertex  1.050000e+002 -2.000000e+000  5.000000e+000
    endloop
  endfacet
  facet normal  0.000000e+000  0.000000e+000  1.000000e+000
    outer loop
      vertex -1.136868e-013 -1.404443e+001  5.000000e+000
      vertex  1.050000e+002 -2.000000e+000  5.000000e+000
      vertex  1.500000e+001 -2.000000e+000  5.000000e+000
    endloop
  endfacet
  facet normal  0.000000e+000  0.000000e+000  1.000000e+000
    outer loop
      vertex  1.500000e+001 -2.000000e+000  5.000000e+000
      vertex  1.050000e+002 -2.000000e+000  5.000000e+000
      vertex  1.050000e+002  3.000000e+000  5.000000e+000
    endloop
  endfacet
  facet normal  0.000000e+000  -0.000000e+000  1.000000e+000
    outer loop
      vertex -5.684342e-014  1.340444e+002  5.000000e+000
      vertex  1.500000e+001  1.220000e+002  5.000000e+000
      vertex  1.200000e+002  1.340444e+002  5.000000e+000
    endloop
  endfacet
  facet normal  0.000000e+000  0.000000e+000  1.000000e+000
    outer loop
      vertex  1.200000e+002  1.340444e+002  5.000000e+000
      vertex  1.500000e+001  1.220000e+002  5.000000e+000
      vertex  1.050000e+002  1.220000e+002  5.000000e+000
    endloop
  endfacet
  facet normal  0.000000e+000  0.000000e+000  1.000000e+000
    outer loop
      vertex  1.200000e+002  1.340444e+002  5.000000e+000
      vertex  1.050000e+002  1.220000e+002  5.000000e+000
      vertex  1.200000e+002  1.220000e+002  5.000000e+000
    endloop
  endfacet
  facet normal  0.000000e+000  1.000000e+000  0.000000e+000
    outer loop
      vertex  5.001684e+001  7.030521e+001  1.000000e+001
      vertex  7.001684e+001  7.030521e+001  1.000000e+001
      vertex  5.001684e+001  7.030521e+001  5.000000e+000
    endloop
  endfacet
  facet normal  0.000000e+000  1.000000e+000  0.000000e+000
    outer loop
      vertex  5.001684e+001  7.030521e+001  5.000000e+000
      vertex  7.001684e+001  7.030521e+001  1.000000e+001
      vertex  7.001684e+001  7.030521e+001  5.000000e+000
    endloop
  endfacet
  facet normal  1.000000e+000  0.000000e+000  0.000000e+000
    outer loop
      vertex  7.001684e+001  5.030521e+001  1.000000e+001
      vertex  7.001684e+001  5.030521e+001  5.000000e+000
      vertex  7.001684e+001  7.030521e+001  1.000000e+001
    endloop
  endfacet
  facet normal  1.000000e+000  0.000000e+000  0.000000e+000
    outer loop
      vertex  7.001684e+001  7.030521e+001  1.000000e+001
      vertex  7.001684e+001  5.030521e+001  5.000000e+000
      vertex  7.001684e+001  7.030521e+001  5.000000e+000
    endloop
  endfacet
  facet normal  0.000000e+000 -1.000000e+000  0.000000e+000
    outer loop
      vertex  5.001684e+001  5.030521e+001  1.000000e+001
      vertex  5.001684e+001  5.030521e+001  5.000000e+000
      vertex  7.001684e+001  5.030521e+001  1.000000e+001
    endloop
  endfacet
  facet normal  0.000000e+000 -1.000000e+000  -0.000000e+000
    outer loop
      vertex  7.001684e+001  5.030521e+001  1.000000e+001
      vertex  5.001684e+001  5.030521e+001  5.000000e+000
      vertex  7.001684e+001  5.030521e+001  5.000000e+000
    endloop
  endfacet
  facet normal -1.000000e+000  0.000000e+000  0.000000e+000
    outer loop
      vertex  5.001684e+001  7.030521e+001  1.000000e+001
      vertex  5.001684e+001  7.030521e+001  5.000000e+000
      vertex  5.001684e+001  5.030521e+001  1.000000e+001
    endloop
  endfacet
  facet normal -1.000000e+000  0.000000e+000  0.000000e+000
    outer loop
      vertex  5.001684e+001  5.030521e+001  1.000000e+001
      vertex  5.001684e+001  7.030521e+001  5.000000e+000
      vertex  5.001684e+001  5.030521e+001  5.000000e+000
    endloop
  endfacet
  facet normal  0.000000e+000  1.000000e+000  0.000000e+000
    outer loop
      vertex  1.200000e+002  1.220000e+002  5.000000e+000
      vertex  1.050000e+002  1.220000e+002  5.000000e+000
      vertex  1.200000e+002  1.220000e+002  6.102057e+001
    endloop
  endfacet
  facet normal  0.000000e+000  1.000000e+000  -0.000000e+000
    outer loop
      vertex  1.200000e+002  1.220000e+002  1.300000e+002
      vertex  1.200000e+002  1.220000e+002  6.102057e+001
      vertex  1.050000e+002  1.220000e+002  5.000000e+000
    endloop
  endfacet
  facet normal  0.000000e+000  1.000000e+000  0.000000e+000
    outer loop
      vertex  1.200000e+002  1.220000e+002  1.300000e+002
      vertex  1.050000e+002  1.220000e+002  5.000000e+000
      vertex  1.050000e+002  1.220000e+002  5.877396e+001
    endloop
  endfacet
  facet normal  0.000000e+000  1.000000e+000  -0.000000e+000
    outer loop
      vertex  1.200000e+002  1.220000e+002  1.300000e+002
      vertex  1.050000e+002  1.220000e+002  5.877396e+001
      vertex  1.500000e+001  1.220000e+002  5.877396e+001
    endloop
  endfacet
  facet normal  0.000000e+000  1.000000e+000  -0.000000e+000
    outer loop
      vertex  1.200000e+002  1.220000e+002  1.300000e+002
      vertex  1.500000e+001  1.220000e+002  5.877396e+001
      vertex  1.421085e-014  1.220000e+002  1.300000e+002
    endloop
  endfacet
  facet normal  0.000000e+000  1.000000e+000  0.000000e+000
    outer loop
      vertex  0.000000e+000  1.220000e+002  5.000000e+000
      vertex  0.000000e+000  1.220000e+002  6.102057e+001
      vertex  1.500000e+001  1.220000e+002  5.000000e+000
    endloop
  endfacet
  facet normal  0.000000e+000  1.000000e+000  0.000000e+000
    outer loop
      vertex  1.500000e+001  1.220000e+002  5.000000e+000
      vertex  0.000000e+000  1.220000e+002  6.102057e+001
      vertex  1.421085e-014  1.220000e+002  1.300000e+002
    endloop
  endfacet
  facet normal  0.000000e+000  1.000000e+000  0.000000e+000
    outer loop
      vertex  1.500000e+001  1.220000e+002  5.000000e+000
      vertex  1.421085e-014  1.220000e+002  1.300000e+002
      vertex  1.500000e+001  1.220000e+002  5.877396e+001
    endloop
  endfacet
  facet normal  1.000000e+000  0.000000e+000  -0.000000e+000
    outer loop
      vertex  1.200000e+002 -1.404443e+001  0.000000e+000
      vertex  1.200000e+002  1.340444e+002  0.000000e+000
      vertex  1.200000e+002  1.340444e+002  5.000000e+000
    endloop
  endfacet
  facet normal  1.000000e+000  0.000000e+000  0.000000e+000
    outer loop
      vertex  1.200000e+002 -1.404443e+001  0.000000e+000
      vertex  1.200000e+002  1.340444e+002  5.000000e+000
      vertex  1.200000e+002  1.220000e+002  5.000000e+000
    endloop
  endfacet
  facet normal  1.000000e+000  0.000000e+000  0.000000e+000
    outer loop
      vertex  1.200000e+002 -1.404443e+001  0.000000e+000
      vertex  1.200000e+002  1.220000e+002  5.000000e+000
      vertex  1.200000e+002  1.150000e+002  5.000000e+000
    endloop
  endfacet
  facet normal  1.000000e+000  0.000000e+000  0.000000e+000
    outer loop
      vertex  1.200000e+002 -1.404443e+001  0.000000e+000
      vertex  1.200000e+002  1.150000e+002  5.000000e+000
      vertex  1.200000e+002  5.000000e+000  5.000000e+000
    endloop
  endfacet
  facet normal  1.000000e+000  -0.000000e+000  0.000000e+000
    outer loop
      vertex  1.200000e+002 -2.000000e+000  5.000000e+000
      vertex  1.200000e+002 -1.404443e+001  5.000000e+000
      vertex  1.200000e+002 -1.404443e+001  0.000000e+000
    endloop
  endfacet
  facet normal  1.000000e+000  0.000000e+000  0.000000e+000
    outer loop
      vertex  1.200000e+002 -2.000000e+000  5.000000e+000
      vertex  1.200000e+002 -1.404443e+001  0.000000e+000
      vertex  1.200000e+002  5.000000e+000  5.000000e+000
    endloop
  endfacet
  facet normal  1.000000e+000  0.000000e+000  -0.000000e+000
    outer loop
      vertex  1.200000e+002 -2.000000e+000  5.000000e+000
      vertex  1.200000e+002  5.000000e+000  5.000000e+000
      vertex  1.200000e+002  5.000000e+000  5.293735e+001
    endloop
  endfacet
  facet normal  1.000000e+000  0.000000e+000  0.000000e+000
    outer loop
      vertex  1.200000e+002 -2.000000e+000  5.000000e+000
      vertex  1.200000e+002  5.000000e+000  5.293735e+001
      vertex  1.200000e+002 -2.000000e+000  6.102057e+001
    endloop
  endfacet
  facet normal  9.999999e-001  -0.000000e+000  0.000000e+000
    outer loop
      vertex  1.200000e+002 -2.000000e+000  1.300000e+002
      vertex  1.200000e+002 -2.000000e+000  6.102057e+001
      vertex  1.200000e+002  5.000000e+000  5.293735e+001
    endloop
  endfacet
  facet normal  1.000000e+000  0.000000e+000  -0.000000e+000
    outer loop
      vertex  1.200000e+002 -2.000000e+000  1.300000e+002
      vertex  1.200000e+002  5.000000e+000  5.293735e+001
      vertex  1.200000e+002  1.150000e+002  5.293735e+001
    endloop
  endfacet
  facet normal  1.000000e+000  0.000000e+000  -0.000000e+000
    outer loop
      vertex  1.200000e+002 -2.000000e+000  1.300000e+002
      vertex  1.200000e+002  1.150000e+002  5.293735e+001
      vertex  1.200000e+002  1.220000e+002  6.102057e+001
    endloop
  endfacet
  facet normal  1.000000e+000  0.000000e+000  -0.000000e+000
    outer loop
      vertex  1.200000e+002 -2.000000e+000  1.300000e+002
      vertex  1.200000e+002  1.220000e+002  6.102057e+001
      vertex  1.200000e+002  1.220000e+002  1.300000e+002
    endloop
  endfacet
  facet normal  1.000000e+000  0.000000e+000  0.000000e+000
    outer loop
      vertex  1.200000e+002  1.150000e+002  5.293735e+001
      vertex  1.200000e+002  1.150000e+002  5.000000e+000
      vertex  1.200000e+002  1.220000e+002  6.102057e+001
    endloop
  endfacet
  facet normal  1.000000e+000  0.000000e+000  0.000000e+000
    outer loop
      vertex  1.200000e+002  1.220000e+002  6.102057e+001
      vertex  1.200000e+002  1.150000e+002  5.000000e+000
      vertex  1.200000e+002  1.220000e+002  5.000000e+000
    endloop
  endfacet
  facet normal  0.000000e+000 -1.000000e+000  0.000000e+000
    outer loop
      vertex  1.200000e+002 -2.000000e+000  6.102057e+001
      vertex  1.050000e+002 -2.000000e+000  5.000000e+000
      vertex  1.200000e+002 -2.000000e+000  5.000000e+000
    endloop
  endfacet
  facet normal  0.000000e+000 -1.000000e+000  0.000000e+000
    outer loop
      vertex  1.200000e+002 -2.000000e+000  1.300000e+002
      vertex  0.000000e+000 -2.000000e+000  1.300000e+002
      vertex  1.500000e+001 -2.000000e+000  5.877396e+001
    endloop
  endfacet
  facet normal  0.000000e+000 -1.000000e+000  0.000000e+000
    outer loop
      vertex  1.200000e+002 -2.000000e+000  1.300000e+002
      vertex  1.500000e+001 -2.000000e+000  5.877396e+001
      vertex  1.050000e+002 -2.000000e+000  5.877396e+001
    endloop
  endfacet
  facet normal  0.000000e+000 -1.000000e+000  0.000000e+000
    outer loop
      vertex  1.200000e+002 -2.000000e+000  1.300000e+002
      vertex  1.050000e+002 -2.000000e+000  5.877396e+001
      vertex  1.050000e+002 -2.000000e+000  5.000000e+000
    endloop
  endfacet
  facet normal  0.000000e+000 -1.000000e+000  0.000000e+000
    outer loop
      vertex  1.200000e+002 -2.000000e+000  1.300000e+002
      vertex  1.050000e+002 -2.000000e+000  5.000000e+000
      vertex  1.200000e+002 -2.000000e+000  6.102057e+001
    endloop
  endfacet
  facet normal  0.000000e+000 -1.000000e+000  0.000000e+000
    outer loop
      vertex  1.500000e+001 -2.000000e+000  5.877396e+001
      vertex  0.000000e+000 -2.000000e+000  1.300000e+002
      vertex  1.500000e+001 -2.000000e+000  5.000000e+000
    endloop
  endfacet
  facet normal  0.000000e+000 -1.000000e+000  0.000000e+000
    outer loop
      vertex  1.500000e+001 -2.000000e+000  5.000000e+000
      vertex  0.000000e+000 -2.000000e+000  1.300000e+002
      vertex  0.000000e+000 -2.000000e+000  6.102057e+001
    endloop
  endfacet
  facet normal  0.000000e+000 -1.000000e+000  -0.000000e+000
    outer loop
      vertex  1.500000e+001 -2.000000e+000  5.000000e+000
      vertex  0.000000e+000 -2.000000e+000  6.102057e+001
      vertex -5.684342e-014 -2.000000e+000  5.000000e+000
    endloop
  endfacet
  facet normal  0.000000e+000  0.000000e+000  1.000000e+000
    outer loop
      vertex  1.200000e+002 -2.000000e+000  1.300000e+002
      vertex  1.170000e+002  3.000000e+000  1.300000e+002
      vertex  0.000000e+000 -2.000000e+000  1.300000e+002
    endloop
  endfacet
  facet normal  0.000000e+000  0.000000e+000  1.000000e+000
    outer loop
      vertex  0.000000e+000 -2.000000e+000  1.300000e+002
      vertex  1.170000e+002  3.000000e+000  1.300000e+002
      vertex  3.873324e+000  3.000000e+000  1.300000e+002
    endloop
  endfacet
  facet normal  0.000000e+000  0.000000e+000  9.999999e-001
    outer loop
      vertex  0.000000e+000 -2.000000e+000  1.300000e+002
      vertex  3.873324e+000  3.000000e+000  1.300000e+002
      vertex  1.421085e-014  1.220000e+002  1.300000e+002
    endloop
  endfacet
  facet normal  0.000000e+000  0.000000e+000  1.000000e+000
    outer loop
      vertex  1.421085e-014  1.220000e+002  1.300000e+002
      vertex  3.873324e+000  3.000000e+000  1.300000e+002
      vertex  3.873324e+000  1.170000e+002  1.300000e+002
    endloop
  endfacet
  facet normal  0.000000e+000  -0.000000e+000  1.000000e+000
    outer loop
      vertex  1.421085e-014  1.220000e+002  1.300000e+002
      vertex  3.873324e+000  1.170000e+002  1.300000e+002
      vertex  1.200000e+002  1.220000e+002  1.300000e+002
    endloop
  endfacet
  facet normal  0.000000e+000  0.000000e+000  1.000000e+000
    outer loop
      vertex  1.200000e+002  1.220000e+002  1.300000e+002
      vertex  3.873324e+000  1.170000e+002  1.300000e+002
      vertex  1.170000e+002  1.170000e+002  1.300000e+002
    endloop
  endfacet
  facet normal  -0.000000e+000  0.000000e+000  1.000000e+000
    outer loop
      vertex  1.200000e+002  1.220000e+002  1.300000e+002
      vertex  1.170000e+002  1.170000e+002  1.300000e+002
      vertex  1.200000e+002 -2.000000e+000  1.300000e+002
    endloop
  endfacet
  facet normal  0.000000e+000  0.000000e+000  1.000000e+000
    outer loop
      vertex  1.200000e+002 -2.000000e+000  1.300000e+002
      vertex  1.170000e+002  1.170000e+002  1.300000e+002
      vertex  1.170000e+002  3.000000e+000  1.300000e+002
    endloop
  endfacet
  facet normal -1.000000e+000  3.838467e-016  0.000000e+000
    outer loop
      vertex -5.684342e-014  1.340444e+002  0.000000e+000
      vertex -1.136868e-013 -1.404443e+001  0.000000e+000
      vertex -1.136868e-013 -1.404443e+001  5.000000e+000
    endloop
  endfacet
  facet normal -1.000000e+000  4.719477e-015  1.284117e-013
    outer loop
      vertex -5.684342e-014  1.340444e+002  0.000000e+000
      vertex -1.136868e-013 -1.404443e+001  5.000000e+000
      vertex -5.684342e-014 -2.000000e+000  5.000000e+000
    endloop
  endfacet
  facet normal -1.000000e+000  8.120489e-015  2.209495e-013
    outer loop
      vertex -5.684342e-014  1.340444e+002  0.000000e+000
      vertex -5.684342e-014 -2.000000e+000  5.000000e+000
      vertex  0.000000e+000  5.000000e+000  5.000000e+000
    endloop
  endfacet
  facet normal -1.000000e+000  0.000000e+000  1.136868e-014
    outer loop
      vertex -5.684342e-014  1.340444e+002  0.000000e+000
      vertex  0.000000e+000  5.000000e+000  5.000000e+000
      vertex  0.000000e+000  1.150000e+002  5.000000e+000
    endloop
  endfacet
  facet normal -1.000000e+000 -4.719477e-015  -0.000000e+000
    outer loop
      vertex  0.000000e+000  1.220000e+002  5.000000e+000
      vertex -5.684342e-014  1.340444e+002  5.000000e+000
      vertex -5.684342e-014  1.340444e+002  0.000000e+000
    endloop
  endfacet
  facet normal -1.000000e+000  0.000000e+000  1.136868e-014
    outer loop
      vertex  0.000000e+000  1.220000e+002  5.000000e+000
      vertex -5.684342e-014  1.340444e+002  0.000000e+000
      vertex  0.000000e+000  1.150000e+002  5.000000e+000
    endloop
  endfacet
  facet normal -1.000000e+000  0.000000e+000  0.000000e+000
    outer loop
      vertex  0.000000e+000  1.220000e+002  5.000000e+000
      vertex  0.000000e+000  1.150000e+002  5.000000e+000
      vertex  0.000000e+000  1.150000e+002  5.293735e+001
    endloop
  endfacet
  facet normal -1.000000e+000  0.000000e+000  0.000000e+000
    outer loop
      vertex  0.000000e+000  1.220000e+002  5.000000e+000
      vertex  0.000000e+000  1.150000e+002  5.293735e+001
      vertex  0.000000e+000  1.220000e+002  6.102057e+001
    endloop
  endfacet
  facet normal -9.999999e-001 -2.378958e-016  2.060158e-016
    outer loop
      vertex  1.421085e-014  1.220000e+002  1.300000e+002
      vertex  0.000000e+000  1.220000e+002  6.102057e+001
      vertex  0.000000e+000  1.150000e+002  5.293735e+001
    endloop
  endfacet
  facet normal -1.000000e+000  0.000000e+000  1.844065e-016
    outer loop
      vertex  1.421085e-014  1.220000e+002  1.300000e+002
      vertex  0.000000e+000  1.150000e+002  5.293735e+001
      vertex  0.000000e+000  5.000000e+000  5.293735e+001
    endloop
  endfacet
  facet normal -1.000000e+000  7.734403e-017  6.697930e-017
    outer loop
      vertex  1.421085e-014  1.220000e+002  1.300000e+002
      vertex  0.000000e+000  5.000000e+000  5.293735e+001
      vertex  0.000000e+000 -2.000000e+000  6.102057e+001
    endloop
  endfacet
  facet normal -1.000000e+000  1.146037e-016  0.000000e+000
    outer loop
      vertex  1.421085e-014  1.220000e+002  1.300000e+002
      vertex  0.000000e+000 -2.000000e+000  6.102057e+001
      vertex  0.000000e+000 -2.000000e+000  1.300000e+002
    endloop
  endfacet
  facet normal -1.000000e+000  0.000000e+000  0.000000e+000
    outer loop
      vertex  0.000000e+000  5.000000e+000  5.293735e+001
      vertex  0.000000e+000  5.000000e+000  5.000000e+000
      vertex  0.000000e+000 -2.000000e+000  6.102057e+001
    endloop
  endfacet
  facet normal -1.000000e+000  8.120488e-015  1.014688e-015
    outer loop
      vertex  0.000000e+000 -2.000000e+000  6.102057e+001
      vertex  0.000000e+000  5.000000e+000  5.000000e+000
      vertex -5.684342e-014 -2.000000e+000  5.000000e+000
    endloop
  endfacet
  facet normal  0.000000e+000  0.000000e+000 -1.000000e+000
    outer loop
      vertex  1.050000e+002 -2.000000e+000  5.877396e+001
      vertex  1.500000e+001 -2.000000e+000  5.877396e+001
      vertex  1.050000e+002  0.000000e+000  5.877396e+001
    endloop
  endfacet
  facet normal  -0.000000e+000  0.000000e+000 -1.000000e+000
    outer loop
      vertex  1.050000e+002  0.000000e+000  5.877396e+001
      vertex  1.500000e+001 -2.000000e+000  5.877396e+001
      vertex  1.500000e+001  0.000000e+000  5.877396e+001
    endloop
  endfacet
  facet normal  0.000000e+000  0.000000e+000 -1.000000e+000
    outer loop
      vertex  1.050000e+002  0.000000e+000  5.877396e+001
      vertex  1.500000e+001  0.000000e+000  5.877396e+001
      vertex  1.050000e+002  3.000000e+000  5.877396e+001
    endloop
  endfacet
  facet normal  -0.000000e+000  0.000000e+000 -1.000000e+000
    outer loop
      vertex  1.050000e+002  3.000000e+000  5.877396e+001
      vertex  1.500000e+001  0.000000e+000  5.877396e+001
      vertex  1.500000e+001  3.000000e+000  5.877396e+001
    endloop
  endfacet
  facet normal  1.000000e+000  -0.000000e+000  0.000000e+000
    outer loop
      vertex  1.500000e+001  3.000000e+000  5.877396e+001
      vertex  1.500000e+001  0.000000e+000  5.877396e+001
      vertex  1.500000e+001  3.000000e+000  5.000000e+000
    endloop
  endfacet
  facet normal  1.000000e+000  0.000000e+000  0.000000e+000
    outer loop
      vertex  1.500000e+001  3.000000e+000  5.000000e+000
      vertex  1.500000e+001  0.000000e+000  5.877396e+001
      vertex  1.500000e+001 -2.000000e+000  5.877396e+001
    endloop
  endfacet
  facet normal  1.000000e+000  0.000000e+000  0.000000e+000
    outer loop
      vertex  1.500000e+001  3.000000e+000  5.000000e+000
      vertex  1.500000e+001 -2.000000e+000  5.877396e+001
      vertex  1.500000e+001 -2.000000e+000  5.000000e+000
    endloop
  endfacet
  facet normal -1.000000e+000  0.000000e+000  0.000000e+000
    outer loop
      vertex  1.050000e+002  3.000000e+000  5.877396e+001
      vertex  1.050000e+002  3.000000e+000  5.000000e+000
      vertex  1.050000e+002  0.000000e+000  5.877396e+001
    endloop
  endfacet
  facet normal -1.000000e+000  0.000000e+000  -0.000000e+000
    outer loop
      vertex  1.050000e+002  0.000000e+000  5.877396e+001
      vertex  1.050000e+002  3.000000e+000  5.000000e+000
      vertex  1.050000e+002 -2.000000e+000  5.000000e+000
    endloop
  endfacet
  facet normal -1.000000e+000  0.000000e+000  0.000000e+000
    outer loop
      vertex  1.050000e+002  0.000000e+000  5.877396e+001
      vertex  1.050000e+002 -2.000000e+000  5.000000e+000
      vertex  1.050000e+002 -2.000000e+000  5.877396e+001
    endloop
  endfacet
  facet normal  0.000000e+000  0.000000e+000 -1.000000e+000
    outer loop
      vertex  1.050000e+002  1.170000e+002  5.877396e+001
      vertex  1.500000e+001  1.170000e+002  5.877396e+001
      vertex  1.050000e+002  1.200000e+002  5.877396e+001
    endloop
  endfacet
  facet normal  -0.000000e+000  0.000000e+000 -1.000000e+000
    outer loop
      vertex  1.050000e+002  1.200000e+002  5.877396e+001
      vertex  1.500000e+001  1.170000e+002  5.877396e+001
      vertex  1.500000e+001  1.200000e+002  5.877396e+001
    endloop
  endfacet
  facet normal  0.000000e+000  0.000000e+000 -1.000000e+000
    outer loop
      vertex  1.050000e+002  1.200000e+002  5.877396e+001
      vertex  1.500000e+001  1.200000e+002  5.877396e+001
      vertex  1.050000e+002  1.220000e+002  5.877396e+001
    endloop
  endfacet
  facet normal  -0.000000e+000  0.000000e+000 -1.000000e+000
    outer loop
      vertex  1.050000e+002  1.220000e+002  5.877396e+001
      vertex  1.500000e+001  1.200000e+002  5.877396e+001
      vertex  1.500000e+001  1.220000e+002  5.877396e+001
    endloop
  endfacet
  facet normal -1.000000e+000  0.000000e+000  0.000000e+000
    outer loop
      vertex  1.050000e+002  1.220000e+002  5.877396e+001
      vertex  1.050000e+002  1.220000e+002  5.000000e+000
      vertex  1.050000e+002  1.200000e+002  5.877396e+001
    endloop
  endfacet
  facet normal -1.000000e+000  0.000000e+000  -0.000000e+000
    outer loop
      vertex  1.050000e+002  1.200000e+002  5.877396e+001
      vertex  1.050000e+002  1.220000e+002  5.000000e+000
      vertex  1.050000e+002  1.170000e+002  5.000000e+000
    endloop
  endfacet
  facet normal -1.000000e+000  0.000000e+000  0.000000e+000
    outer loop
      vertex  1.050000e+002  1.200000e+002  5.877396e+001
      vertex  1.050000e+002  1.170000e+002  5.000000e+000
      vertex  1.050000e+002  1.170000e+002  5.877396e+001
    endloop
  endfacet
  facet normal  1.000000e+000  -0.000000e+000  0.000000e+000
    outer loop
      vertex  1.500000e+001  1.220000e+002  5.877396e+001
      vertex  1.500000e+001  1.200000e+002  5.877396e+001
      vertex  1.500000e+001  1.220000e+002  5.000000e+000
    endloop
  endfacet
  facet normal  9.999999e-001  0.000000e+000  0.000000e+000
    outer loop
      vertex  1.500000e+001  1.220000e+002  5.000000e+000
      vertex  1.500000e+001  1.200000e+002  5.877396e+001
      vertex  1.500000e+001  1.170000e+002  5.877396e+001
    endloop
  endfacet
  facet normal  1.000000e+000  0.000000e+000  0.000000e+000
    outer loop
      vertex  1.500000e+001  1.220000e+002  5.000000e+000
      vertex  1.500000e+001  1.170000e+002  5.877396e+001
      vertex  1.500000e+001  1.170000e+002  5.000000e+000
    endloop
  endfacet
  facet normal  0.000000e+000  1.000000e+000  0.000000e+000
    outer loop
      vertex  3.873324e+000  3.000000e+000  1.300000e+002
      vertex  1.500000e+001  3.000000e+000  5.000000e+000
      vertex  3.873324e+000  3.000000e+000  5.000000e+000
    endloop
  endfacet
  facet normal  0.000000e+000  1.000000e+000  0.000000e+000
    outer loop
      vertex  1.500000e+001  3.000000e+000  5.000000e+000
      vertex  3.873324e+000  3.000000e+000  1.300000e+002
      vertex  1.500000e+001  3.000000e+000  5.877396e+001
    endloop
  endfacet
  facet normal  0.000000e+000  9.999999e-001  -0.000000e+000
    outer loop
      vertex  1.500000e+001  3.000000e+000  5.877396e+001
      vertex  3.873324e+000  3.000000e+000  1.300000e+002
      vertex  1.170000e+002  3.000000e+000  1.300000e+002
    endloop
  endfacet
  facet normal  0.000000e+000  9.999999e-001  0.000000e+000
    outer loop
      vertex  1.500000e+001  3.000000e+000  5.877396e+001
      vertex  1.170000e+002  3.000000e+000  1.300000e+002
      vertex  1.050000e+002  3.000000e+000  5.877396e+001
    endloop
  endfacet
  facet normal  -0.000000e+000  1.000000e+000  0.000000e+000
    outer loop
      vertex  1.050000e+002  3.000000e+000  5.877396e+001
      vertex  1.170000e+002  3.000000e+000  1.300000e+002
      vertex  1.170000e+002  3.000000e+000  5.000000e+000
    endloop
  endfacet
  facet normal  0.000000e+000  1.000000e+000  0.000000e+000
    outer loop
      vertex  1.050000e+002  3.000000e+000  5.877396e+001
      vertex  1.170000e+002  3.000000e+000  5.000000e+000
      vertex  1.050000e+002  3.000000e+000  5.000000e+000
    endloop
  endfacet
  facet normal  0.000000e+000 -1.000000e+000  0.000000e+000
    outer loop
      vertex  1.170000e+002  1.170000e+002  1.300000e+002
      vertex  1.050000e+002  1.170000e+002  5.000000e+000
      vertex  1.170000e+002  1.170000e+002  5.000000e+000
    endloop
  endfacet
  facet normal  0.000000e+000 -1.000000e+000  0.000000e+000
    outer loop
      vertex  1.050000e+002  1.170000e+002  5.000000e+000
      vertex  1.170000e+002  1.170000e+002  1.300000e+002
      vertex  1.050000e+002  1.170000e+002  5.877396e+001
    endloop
  endfacet
  facet normal  0.000000e+000 -1.000000e+000  0.000000e+000
    outer loop
      vertex  1.050000e+002  1.170000e+002  5.877396e+001
      vertex  1.170000e+002  1.170000e+002  1.300000e+002
      vertex  3.873324e+000  1.170000e+002  1.300000e+002
    endloop
  endfacet
  facet normal  0.000000e+000 -1.000000e+000  0.000000e+000
    outer loop
      vertex  1.050000e+002  1.170000e+002  5.877396e+001
      vertex  3.873324e+000  1.170000e+002  1.300000e+002
      vertex  1.500000e+001  1.170000e+002  5.877396e+001
    endloop
  endfacet
  facet normal  -0.000000e+000 -1.000000e+000  0.000000e+000
    outer loop
      vertex  1.500000e+001  1.170000e+002  5.877396e+001
      vertex  3.873324e+000  1.170000e+002  1.300000e+002
      vertex  3.873324e+000  1.170000e+002  5.000000e+000
    endloop
  endfacet
  facet normal  0.000000e+000 -1.000000e+000  0.000000e+000
    outer loop
      vertex  1.500000e+001  1.170000e+002  5.877396e+001
      vertex  3.873324e+000  1.170000e+002  5.000000e+000
      vertex  1.500000e+001  1.170000e+002  5.000000e+000
    endloop
  endfacet
  facet normal  0.000000e+000  -0.000000e+000 -1.000000e+000
    outer loop
      vertex -1.136868e-013 -1.404443e+001  0.000000e+000
      vertex -5.684342e-014  1.340444e+002  0.000000e+000
      vertex  1.200000e+002 -1.404443e+001  0.000000e+000
    endloop
  endfacet
  facet normal  0.000000e+000  0.000000e+000 -1.000000e+000
    outer loop
      vertex  1.200000e+002 -1.404443e+001  0.000000e+000
      vertex -5.684342e-014  1.340444e+002  0.000000e+000
      vertex  1.200000e+002  1.340444e+002  0.000000e+000
    endloop
  endfacet
  facet normal  0.000000e+000  1.000000e+000  -0.000000e+000
    outer loop
      vertex  1.200000e+002  1.340444e+002  5.000000e+000
      vertex  1.200000e+002  1.340444e+002  0.000000e+000
      vertex -5.684342e-014  1.340444e+002  5.000000e+000
    endloop
  endfacet
  facet normal  0.000000e+000  1.000000e+000  0.000000e+000
    outer loop
      vertex -5.684342e-014  1.340444e+002  5.000000e+000
      vertex  1.200000e+002  1.340444e+002  0.000000e+000
      vertex -5.684342e-014  1.340444e+002  0.000000e+000
    endloop
  endfacet
  facet normal  0.000000e+000 -1.000000e+000  0.000000e+000
    outer loop
      vertex  1.200000e+002 -1.404443e+001  5.000000e+000
      vertex -1.136868e-013 -1.404443e+001  5.000000e+000
      vertex  1.200000e+002 -1.404443e+001  0.000000e+000
    endloop
  endfacet
  facet normal  0.000000e+000 -1.000000e+000  0.000000e+000
    outer loop
      vertex  1.200000e+002 -1.404443e+001  0.000000e+000
      vertex -1.136868e-013 -1.404443e+001  5.000000e+000
      vertex -1.136868e-013 -1.404443e+001  0.000000e+000
    endloop
  endfacet
  facet normal  1.000000e+000  0.000000e+000  0.000000e+000
    outer loop
      vertex  3.873324e+000  5.000000e+000  5.293735e+001
      vertex  3.873324e+000  3.000000e+000  5.000000e+000
      vertex  3.873324e+000  5.000000e+000  5.000000e+000
    endloop
  endfacet
  facet normal  1.000000e+000  0.000000e+000  0.000000e+000
    outer loop
      vertex  3.873324e+000  3.000000e+000  5.000000e+000
      vertex  3.873324e+000  5.000000e+000  5.293735e+001
      vertex  3.873324e+000  3.000000e+000  1.300000e+002
    endloop
  endfacet
  facet normal  1.000000e+000  0.000000e+000  0.000000e+000
    outer loop
      vertex  3.873324e+000  3.000000e+000  1.300000e+002
      vertex  3.873324e+000  5.000000e+000  5.293735e+001
      vertex  3.873324e+000  1.150000e+002  5.293735e+001
    endloop
  endfacet
  facet normal  1.000000e+000  0.000000e+000  -0.000000e+000
    outer loop
      vertex  3.873324e+000  3.000000e+000  1.300000e+002
      vertex  3.873324e+000  1.150000e+002  5.293735e+001
      vertex  3.873324e+000  1.170000e+002  1.300000e+002
    endloop
  endfacet
  facet normal  1.000000e+000  0.000000e+000  0.000000e+000
    outer loop
      vertex  3.873324e+000  1.170000e+002  1.300000e+002
      vertex  3.873324e+000  1.150000e+002  5.293735e+001
      vertex  3.873324e+000  1.150000e+002  5.000000e+000
    endloop
  endfacet
  facet normal  1.000000e+000  0.000000e+000  0.000000e+000
    outer loop
      vertex  3.873324e+000  1.170000e+002  1.300000e+002
      vertex  3.873324e+000  1.150000e+002  5.000000e+000
      vertex  3.873324e+000  1.170000e+002  5.000000e+000
    endloop
  endfacet
  facet normal -1.000000e+000  0.000000e+000  0.000000e+000
    outer loop
      vertex  1.170000e+002  3.000000e+000  1.300000e+002
      vertex  1.170000e+002  5.000000e+000  5.000000e+000
      vertex  1.170000e+002  3.000000e+000  5.000000e+000
    endloop
  endfacet
  facet normal -1.000000e+000  0.000000e+000  0.000000e+000
    outer loop
      vertex  1.170000e+002  5.000000e+000  5.000000e+000
      vertex  1.170000e+002  3.000000e+000  1.300000e+002
      vertex  1.170000e+002  5.000000e+000  5.293735e+001
    endloop
  endfacet
  facet normal -1.000000e+000  0.000000e+000  0.000000e+000
    outer loop
      vertex  1.170000e+002  5.000000e+000  5.293735e+001
      vertex  1.170000e+002  3.000000e+000  1.300000e+002
      vertex  1.170000e+002  1.170000e+002  1.300000e+002
    endloop
  endfacet
  facet normal -1.000000e+000  0.000000e+000  0.000000e+000
    outer loop
      vertex  1.170000e+002  5.000000e+000  5.293735e+001
      vertex  1.170000e+002  1.170000e+002  1.300000e+002
      vertex  1.170000e+002  1.150000e+002  5.293735e+001
    endloop
  endfacet
  facet normal -1.000000e+000  0.000000e+000  0.000000e+000
    outer loop
      vertex  1.170000e+002  1.150000e+002  5.293735e+001
      vertex  1.170000e+002  1.170000e+002  1.300000e+002
      vertex  1.170000e+002  1.170000e+002  5.000000e+000
    endloop
  endfacet
  facet normal -1.000000e+000  0.000000e+000  0.000000e+000
    outer loop
      vertex  1.170000e+002  1.150000e+002  5.293735e+001
      vertex  1.170000e+002  1.170000e+002  5.000000e+000
      vertex  1.170000e+002  1.150000e+002  5.000000e+000
    endloop
  endfacet
  facet normal  0.000000e+000  1.000000e+000  0.000000e+000
    outer loop
      vertex  1.200000e+002  5.000000e+000  5.000000e+000
      vertex  1.170000e+002  5.000000e+000  5.000000e+000
      vertex  1.200000e+002  5.000000e+000  5.293735e+001
    endloop
  endfacet
  facet normal  0.000000e+000  1.000000e+000  0.000000e+000
    outer loop
      vertex  1.200000e+002  5.000000e+000  5.293735e+001
      vertex  1.170000e+002  5.000000e+000  5.000000e+000
      vertex  1.170000e+002  5.000000e+000  5.293735e+001
    endloop
  endfacet
  facet normal  0.000000e+000 -1.000000e+000  0.000000e+000
    outer loop
      vertex  1.200000e+002  1.150000e+002  5.293735e+001
      vertex  1.170000e+002  1.150000e+002  5.293735e+001
      vertex  1.200000e+002  1.150000e+002  5.000000e+000
    endloop
  endfacet
  facet normal  0.000000e+000 -1.000000e+000  0.000000e+000
    outer loop
      vertex  1.200000e+002  1.150000e+002  5.000000e+000
      vertex  1.170000e+002  1.150000e+002  5.293735e+001
      vertex  1.170000e+002  1.150000e+002  5.000000e+000
    endloop
  endfacet
  facet normal  0.000000e+000 -1.000000e+000  0.000000e+000
    outer loop
      vertex  3.873324e+000  1.150000e+002  5.293735e+001
      vertex  0.000000e+000  1.150000e+002  5.293735e+001
      vertex  3.873324e+000  1.150000e+002  5.000000e+000
    endloop
  endfacet
  facet normal  0.000000e+000 -1.000000e+000  0.000000e+000
    outer loop
      vertex  3.873324e+000  1.150000e+002  5.000000e+000
      vertex  0.000000e+000  1.150000e+002  5.293735e+001
      vertex  0.000000e+000  1.150000e+002  5.000000e+000
    endloop
  endfacet
  facet normal  0.000000e+000  1.000000e+000  0.000000e+000
    outer loop
      vertex  3.873324e+000  5.000000e+000  5.000000e+000
      vertex  0.000000e+000  5.000000e+000  5.000000e+000
      vertex  3.873324e+000  5.000000e+000  5.293735e+001
    endloop
  endfacet
  facet normal  0.000000e+000  1.000000e+000  0.000000e+000
    outer loop
      vertex  3.873324e+000  5.000000e+000  5.293735e+001
      vertex  0.000000e+000  5.000000e+000  5.000000e+000
      vertex  0.000000e+000  5.000000e+000  5.293735e+001
    endloop
  endfacet
  facet normal  0.000000e+000  0.000000e+000 -9.999999e-001
    outer loop
      vertex  1.200000e+002  1.150000e+002  5.293735e+001
      vertex  1.200000e+002  5.000000e+000  5.293735e+001
      vertex  1.170000e+002  1.150000e+002  5.293735e+001
    endloop
  endfacet
  facet normal  0.000000e+000  0.000000e+000 -9.999999e-001
    outer loop
      vertex  1.170000e+002  1.150000e+002  5.293735e+001
      vertex  1.200000e+002  5.000000e+000  5.293735e+001
      vertex  1.170000e+002  5.000000e+000  5.293735e+001
    endloop
  endfacet
  facet normal  0.000000e+000  0.000000e+000 -1.000000e+000
    outer loop
      vertex  3.873324e+000  1.150000e+002  5.293735e+001
      vertex  3.873324e+000  5.000000e+000  5.293735e+001
      vertex  0.000000e+000  1.150000e+002  5.293735e+001
    endloop
  endfacet
  facet normal  0.000000e+000  0.000000e+000 -1.000000e+000
    outer loop
      vertex  0.000000e+000  1.150000e+002  5.293735e+001
      vertex  3.873324e+000  5.000000e+000  5.293735e+001
      vertex  0.000000e+000  5.000000e+000  5.293735e+001
    endloop
  endfacet
endsolid CATIA STL
