solid CATIA STL
  facet normal  0.000000e+000  -0.000000e+000  1.000000e+000
    outer loop
      vertex  7.200000e+001  1.580000e+002  4.300000e+001
      vertex  8.886467e+001  1.215577e+002  4.300000e+001
      vertex  9.027888e+001  1.221435e+002  4.300000e+001
    endloop
  endfacet
  facet normal  0.000000e+000  0.000000e+000  1.000000e+000
    outer loop
      vertex  9.169310e+001  6.270694e+000  4.300000e+001
      vertex  9.027888e+001  1.181435e+002  4.300000e+001
      vertex  9.027888e+001  6.856481e+000  4.300000e+001
    endloop
  endfacet
  facet normal  0.000000e+000  0.000000e+000  1.000000e+000
    outer loop
      vertex  9.900000e+001  1.250000e+002  4.300000e+001
      vertex  7.200000e+001  1.580000e+002  4.300000e+001
      vertex  9.027888e+001  1.221435e+002  4.300000e+001
    endloop
  endfacet
  facet normal  -0.000000e+000  0.000000e+000  1.000000e+000
    outer loop
      vertex  9.900000e+001  1.250000e+002  4.300000e+001
      vertex  9.027888e+001  1.221435e+002  4.300000e+001
      vertex  9.169310e+001  1.215577e+002  4.300000e+001
    endloop
  endfacet
  facet normal  -0.000000e+000  0.000000e+000  1.000000e+000
    outer loop
      vertex  9.900000e+001  1.250000e+002  4.300000e+001
      vertex  9.169310e+001  1.215577e+002  4.300000e+001
      vertex  9.227888e+001  1.201435e+002  4.300000e+001
    endloop
  endfacet
  facet normal  -0.000000e+000  0.000000e+000  1.000000e+000
    outer loop
      vertex  9.900000e+001  1.250000e+002  4.300000e+001
      vertex  9.227888e+001  1.201435e+002  4.300000e+001
      vertex  9.900000e+001  1.929110e+000  4.300000e+001
    endloop
  endfacet
  facet normal  -0.000000e+000  0.000000e+000  1.000000e+000
    outer loop
      vertex  2.700000e+001  1.580000e+002  4.300000e+001
      vertex -1.563194e-013  1.250000e+002  4.300000e+001
      vertex  8.721115e+000  1.221435e+002  4.300000e+001
    endloop
  endfacet
  facet normal  -0.000000e+000  0.000000e+000  1.000000e+000
    outer loop
      vertex  2.700000e+001  1.580000e+002  4.300000e+001
      vertex  8.721115e+000  1.221435e+002  4.300000e+001
      vertex  1.013533e+001  1.215577e+002  4.300000e+001
    endloop
  endfacet
  facet normal  -0.000000e+000  0.000000e+000  9.999999e-001
    outer loop
      vertex  2.700000e+001  1.580000e+002  4.300000e+001
      vertex  1.013533e+001  1.215577e+002  4.300000e+001
      vertex  4.638769e+001  1.030000e+002  4.300000e+001
    endloop
  endfacet
  facet normal  0.000000e+000  -0.000000e+000  1.000000e+000
    outer loop
      vertex  2.700000e+001  1.580000e+002  4.300000e+001
      vertex  4.638769e+001  1.030000e+002  4.300000e+001
      vertex  4.638769e+001  1.580000e+002  4.300000e+001
    endloop
  endfacet
  facet normal  0.000000e+000  0.000000e+000  1.000000e+000
    outer loop
      vertex -1.423279e-013  1.929110e+000  4.300000e+001
      vertex  2.033125e+001 -2.292019e+001  4.300000e+001
      vertex  8.721115e+000  2.856481e+000  4.300000e+001
    endloop
  endfacet
  facet normal  0.000000e+000  0.000000e+000  1.000000e+000
    outer loop
      vertex -1.423279e-013  1.929110e+000  4.300000e+001
      vertex  8.721115e+000  2.856481e+000  4.300000e+001
      vertex  7.306901e+000  3.442267e+000  4.300000e+001
    endloop
  endfacet
  facet normal  0.000000e+000  0.000000e+000  1.000000e+000
    outer loop
      vertex -1.423279e-013  1.929110e+000  4.300000e+001
      vertex  7.306901e+000  3.442267e+000  4.300000e+001
      vertex  6.721115e+000  4.856481e+000  4.300000e+001
    endloop
  endfacet
  facet normal  0.000000e+000  -0.000000e+000  1.000000e+000
    outer loop
      vertex -1.423279e-013  1.929110e+000  4.300000e+001
      vertex  6.721115e+000  4.856481e+000  4.300000e+001
      vertex  7.306901e+000  6.270694e+000  4.300000e+001
    endloop
  endfacet
  facet normal  0.000000e+000  -0.000000e+000  9.999999e-001
    outer loop
      vertex -1.423279e-013  1.929110e+000  4.300000e+001
      vertex  7.306901e+000  6.270694e+000  4.300000e+001
      vertex  8.721115e+000  1.181435e+002  4.300000e+001
    endloop
  endfacet
  facet normal  0.000000e+000  0.000000e+000  1.000000e+000
    outer loop
      vertex -1.423279e-013  1.929110e+000  4.300000e+001
      vertex  8.721115e+000  1.181435e+002  4.300000e+001
      vertex  7.306901e+000  1.187293e+002  4.300000e+001
    endloop
  endfacet
  facet normal  0.000000e+000  0.000000e+000  9.999999e-001
    outer loop
      vertex -1.423279e-013  1.929110e+000  4.300000e+001
      vertex  7.306901e+000  1.187293e+002  4.300000e+001
      vertex  6.721115e+000  1.201435e+002  4.300000e+001
    endloop
  endfacet
  facet normal  0.000000e+000  -0.000000e+000  1.000000e+000
    outer loop
      vertex -1.563194e-013  1.250000e+002  4.300000e+001
      vertex -1.423279e-013  1.929110e+000  4.300000e+001
      vertex  6.721115e+000  1.201435e+002  4.300000e+001
    endloop
  endfacet
  facet normal  0.000000e+000  -0.000000e+000  1.000000e+000
    outer loop
      vertex -1.563194e-013  1.250000e+002  4.300000e+001
      vertex  6.721115e+000  1.201435e+002  4.300000e+001
      vertex  7.306901e+000  1.215577e+002  4.300000e+001
    endloop
  endfacet
  facet normal  0.000000e+000  -0.000000e+000  1.000000e+000
    outer loop
      vertex -1.563194e-013  1.250000e+002  4.300000e+001
      vertex  7.306901e+000  1.215577e+002  4.300000e+001
      vertex  8.721115e+000  1.221435e+002  4.300000e+001
    endloop
  endfacet
  facet normal  0.000000e+000  0.000000e+000  1.000000e+000
    outer loop
      vertex  5.261231e+001  1.030000e+002  4.300000e+001
      vertex  8.721115e+000  6.856481e+000  4.300000e+001
      vertex  9.027888e+001  6.856481e+000  4.300000e+001
    endloop
  endfacet
  facet normal  0.000000e+000  -0.000000e+000  1.000000e+000
    outer loop
      vertex  5.261231e+001  1.030000e+002  4.300000e+001
      vertex  9.027888e+001  6.856481e+000  4.300000e+001
      vertex  9.027888e+001  1.181435e+002  4.300000e+001
    endloop
  endfacet
  facet normal  0.000000e+000  0.000000e+000  1.000000e+000
    outer loop
      vertex  5.261231e+001  1.030000e+002  4.300000e+001
      vertex  9.027888e+001  1.181435e+002  4.300000e+001
      vertex  8.886467e+001  1.187293e+002  4.300000e+001
    endloop
  endfacet
  facet normal  0.000000e+000  0.000000e+000  9.999999e-001
    outer loop
      vertex  5.261231e+001  1.030000e+002  4.300000e+001
      vertex  8.886467e+001  1.187293e+002  4.300000e+001
      vertex  8.827888e+001  1.201435e+002  4.300000e+001
    endloop
  endfacet
  facet normal  0.000000e+000  -0.000000e+000  1.000000e+000
    outer loop
      vertex  5.261231e+001  1.030000e+002  4.300000e+001
      vertex  8.827888e+001  1.201435e+002  4.300000e+001
      vertex  8.886467e+001  1.215577e+002  4.300000e+001
    endloop
  endfacet
  facet normal  0.000000e+000  0.000000e+000  1.000000e+000
    outer loop
      vertex  5.261231e+001  1.030000e+002  4.300000e+001
      vertex  8.886467e+001  1.215577e+002  4.300000e+001
      vertex  7.200000e+001  1.580000e+002  4.300000e+001
    endloop
  endfacet
  facet normal  0.000000e+000  0.000000e+000  1.000000e+000
    outer loop
      vertex  5.261231e+001  1.030000e+002  4.300000e+001
      vertex  7.200000e+001  1.580000e+002  4.300000e+001
      vertex  5.261231e+001  1.580000e+002  4.300000e+001
    endloop
  endfacet
  facet normal  0.000000e+000  0.000000e+000  1.000000e+000
    outer loop
      vertex  4.638769e+001  1.030000e+002  4.300000e+001
      vertex  1.013533e+001  1.215577e+002  4.300000e+001
      vertex  1.072112e+001  1.201435e+002  4.300000e+001
    endloop
  endfacet
  facet normal  0.000000e+000  0.000000e+000  1.000000e+000
    outer loop
      vertex  4.638769e+001  1.030000e+002  4.300000e+001
      vertex  1.072112e+001  1.201435e+002  4.300000e+001
      vertex  1.013533e+001  1.187293e+002  4.300000e+001
    endloop
  endfacet
  facet normal  0.000000e+000  0.000000e+000  1.000000e+000
    outer loop
      vertex  4.638769e+001  1.030000e+002  4.300000e+001
      vertex  1.013533e+001  1.187293e+002  4.300000e+001
      vertex  8.721115e+000  1.181435e+002  4.300000e+001
    endloop
  endfacet
  facet normal  0.000000e+000  0.000000e+000  1.000000e+000
    outer loop
      vertex  8.721115e+000  6.856481e+000  4.300000e+001
      vertex  5.261231e+001  1.030000e+002  4.300000e+001
      vertex  4.950000e+001  1.030000e+002  4.300000e+001
    endloop
  endfacet
  facet normal  0.000000e+000  0.000000e+000  1.000000e+000
    outer loop
      vertex  8.721115e+000  6.856481e+000  4.300000e+001
      vertex  4.950000e+001  1.030000e+002  4.300000e+001
      vertex  4.638769e+001  1.030000e+002  4.300000e+001
    endloop
  endfacet
  facet normal  0.000000e+000  0.000000e+000  1.000000e+000
    outer loop
      vertex  8.721115e+000  6.856481e+000  4.300000e+001
      vertex  4.638769e+001  1.030000e+002  4.300000e+001
      vertex  8.721115e+000  1.181435e+002  4.300000e+001
    endloop
  endfacet
  facet normal  0.000000e+000  0.000000e+000  1.000000e+000
    outer loop
      vertex  8.721115e+000  6.856481e+000  4.300000e+001
      vertex  8.721115e+000  1.181435e+002  4.300000e+001
      vertex  7.306901e+000  6.270694e+000  4.300000e+001
    endloop
  endfacet
  facet normal  0.000000e+000  0.000000e+000  9.999999e-001
    outer loop
      vertex  9.900000e+001  1.929110e+000  4.300000e+001
      vertex  9.227888e+001  1.201435e+002  4.300000e+001
      vertex  9.169310e+001  1.187293e+002  4.300000e+001
    endloop
  endfacet
  facet normal  0.000000e+000  0.000000e+000  1.000000e+000
    outer loop
      vertex  9.900000e+001  1.929110e+000  4.300000e+001
      vertex  9.169310e+001  1.187293e+002  4.300000e+001
      vertex  9.027888e+001  1.181435e+002  4.300000e+001
    endloop
  endfacet
  facet normal  0.000000e+000  0.000000e+000  1.000000e+000
    outer loop
      vertex  9.900000e+001  1.929110e+000  4.300000e+001
      vertex  9.027888e+001  1.181435e+002  4.300000e+001
      vertex  9.169310e+001  6.270694e+000  4.300000e+001
    endloop
  endfacet
  facet normal  0.000000e+000  0.000000e+000  1.000000e+000
    outer loop
      vertex  9.900000e+001  1.929110e+000  4.300000e+001
      vertex  9.169310e+001  6.270694e+000  4.300000e+001
      vertex  9.227888e+001  4.856481e+000  4.300000e+001
    endloop
  endfacet
  facet normal  0.000000e+000  0.000000e+000  1.000000e+000
    outer loop
      vertex  9.900000e+001  1.929110e+000  4.300000e+001
      vertex  9.227888e+001  4.856481e+000  4.300000e+001
      vertex  9.169310e+001  3.442267e+000  4.300000e+001
    endloop
  endfacet
  facet normal  0.000000e+000  0.000000e+000  1.000000e+000
    outer loop
      vertex  9.900000e+001  1.929110e+000  4.300000e+001
      vertex  9.169310e+001  3.442267e+000  4.300000e+001
      vertex  9.027888e+001  2.856481e+000  4.300000e+001
    endloop
  endfacet
  facet normal  0.000000e+000  0.000000e+000  1.000000e+000
    outer loop
      vertex  9.900000e+001  1.929110e+000  4.300000e+001
      vertex  9.027888e+001  2.856481e+000  4.300000e+001
      vertex  7.866875e+001 -2.292019e+001  4.300000e+001
    endloop
  endfacet
  facet normal  -0.000000e+000  0.000000e+000  1.000000e+000
    outer loop
      vertex  9.027888e+001  6.856481e+000  4.300000e+001
      vertex  8.721115e+000  6.856481e+000  4.300000e+001
      vertex  8.886467e+001  6.270694e+000  4.300000e+001
    endloop
  endfacet
  facet normal  0.000000e+000  0.000000e+000  1.000000e+000
    outer loop
      vertex  8.886467e+001  6.270694e+000  4.300000e+001
      vertex  8.721115e+000  6.856481e+000  4.300000e+001
      vertex  1.013533e+001  6.270694e+000  4.300000e+001
    endloop
  endfacet
  facet normal  -0.000000e+000  0.000000e+000  1.000000e+000
    outer loop
      vertex  8.886467e+001  6.270694e+000  4.300000e+001
      vertex  1.013533e+001  6.270694e+000  4.300000e+001
      vertex  8.827888e+001  4.856481e+000  4.300000e+001
    endloop
  endfacet
  facet normal  0.000000e+000  0.000000e+000  1.000000e+000
    outer loop
      vertex  8.827888e+001  4.856481e+000  4.300000e+001
      vertex  1.013533e+001  6.270694e+000  4.300000e+001
      vertex  1.072112e+001  4.856481e+000  4.300000e+001
    endloop
  endfacet
  facet normal  -0.000000e+000  0.000000e+000  1.000000e+000
    outer loop
      vertex  8.827888e+001  4.856481e+000  4.300000e+001
      vertex  1.072112e+001  4.856481e+000  4.300000e+001
      vertex  8.886467e+001  3.442267e+000  4.300000e+001
    endloop
  endfacet
  facet normal  0.000000e+000  0.000000e+000  1.000000e+000
    outer loop
      vertex  8.886467e+001  3.442267e+000  4.300000e+001
      vertex  1.072112e+001  4.856481e+000  4.300000e+001
      vertex  1.013533e+001  3.442267e+000  4.300000e+001
    endloop
  endfacet
  facet normal  -0.000000e+000  0.000000e+000  1.000000e+000
    outer loop
      vertex  8.886467e+001  3.442267e+000  4.300000e+001
      vertex  1.013533e+001  3.442267e+000  4.300000e+001
      vertex  9.027888e+001  2.856481e+000  4.300000e+001
    endloop
  endfacet
  facet normal  0.000000e+000  0.000000e+000  1.000000e+000
    outer loop
      vertex  9.027888e+001  2.856481e+000  4.300000e+001
      vertex  1.013533e+001  3.442267e+000  4.300000e+001
      vertex  8.721115e+000  2.856481e+000  4.300000e+001
    endloop
  endfacet
  facet normal  -0.000000e+000  0.000000e+000  1.000000e+000
    outer loop
      vertex  9.027888e+001  2.856481e+000  4.300000e+001
      vertex  8.721115e+000  2.856481e+000  4.300000e+001
      vertex  7.866875e+001 -2.292019e+001  4.300000e+001
    endloop
  endfacet
  facet normal  0.000000e+000  0.000000e+000  1.000000e+000
    outer loop
      vertex  7.866875e+001 -2.292019e+001  4.300000e+001
      vertex  8.721115e+000  2.856481e+000  4.300000e+001
      vertex  2.033125e+001 -2.292019e+001  4.300000e+001
    endloop
  endfacet
  facet normal  0.000000e+000  0.000000e+000 -1.000000e+000
    outer loop
      vertex  9.027888e+001  1.221435e+002  4.000000e+001
      vertex  8.886467e+001  1.215577e+002  4.000000e+001
      vertex  7.057836e+001  1.550000e+002  4.000000e+001
    endloop
  endfacet
  facet normal  0.000000e+000  0.000000e+000 -1.000000e+000
    outer loop
      vertex  9.027888e+001  6.856481e+000  4.000000e+001
      vertex  9.027888e+001  1.181435e+002  4.000000e+001
      vertex  9.169310e+001  6.270694e+000  4.000000e+001
    endloop
  endfacet
  facet normal  0.000000e+000  0.000000e+000 -1.000000e+000
    outer loop
      vertex  9.600000e+001  1.239291e+002  4.000000e+001
      vertex  9.600000e+001  3.000000e+000  4.000000e+001
      vertex  9.227888e+001  1.201435e+002  4.000000e+001
    endloop
  endfacet
  facet normal  0.000000e+000  0.000000e+000 -1.000000e+000
    outer loop
      vertex  9.600000e+001  1.239291e+002  4.000000e+001
      vertex  9.227888e+001  1.201435e+002  4.000000e+001
      vertex  9.169310e+001  1.215577e+002  4.000000e+001
    endloop
  endfacet
  facet normal  0.000000e+000  0.000000e+000 -9.999999e-001
    outer loop
      vertex  9.600000e+001  1.239291e+002  4.000000e+001
      vertex  9.169310e+001  1.215577e+002  4.000000e+001
      vertex  9.027888e+001  1.221435e+002  4.000000e+001
    endloop
  endfacet
  facet normal  0.000000e+000  0.000000e+000 -9.999999e-001
    outer loop
      vertex  9.600000e+001  1.239291e+002  4.000000e+001
      vertex  9.027888e+001  1.221435e+002  4.000000e+001
      vertex  7.057836e+001  1.550000e+002  4.000000e+001
    endloop
  endfacet
  facet normal  0.000000e+000  0.000000e+000 -1.000000e+000
    outer loop
      vertex  9.600000e+001  3.000000e+000  4.000000e+001
      vertex  7.724712e+001 -1.992019e+001  4.000000e+001
      vertex  9.027888e+001  2.856481e+000  4.000000e+001
    endloop
  endfacet
  facet normal  0.000000e+000  0.000000e+000 -1.000000e+000
    outer loop
      vertex  9.600000e+001  3.000000e+000  4.000000e+001
      vertex  9.027888e+001  2.856481e+000  4.000000e+001
      vertex  9.169310e+001  3.442267e+000  4.000000e+001
    endloop
  endfacet
  facet normal  0.000000e+000  0.000000e+000 -1.000000e+000
    outer loop
      vertex  9.600000e+001  3.000000e+000  4.000000e+001
      vertex  9.169310e+001  3.442267e+000  4.000000e+001
      vertex  9.227888e+001  4.856481e+000  4.000000e+001
    endloop
  endfacet
  facet normal  0.000000e+000  0.000000e+000 -1.000000e+000
    outer loop
      vertex  9.600000e+001  3.000000e+000  4.000000e+001
      vertex  9.227888e+001  4.856481e+000  4.000000e+001
      vertex  9.169310e+001  6.270694e+000  4.000000e+001
    endloop
  endfacet
  facet normal  0.000000e+000  0.000000e+000 -1.000000e+000
    outer loop
      vertex  9.600000e+001  3.000000e+000  4.000000e+001
      vertex  9.169310e+001  6.270694e+000  4.000000e+001
      vertex  9.027888e+001  1.181435e+002  4.000000e+001
    endloop
  endfacet
  facet normal  0.000000e+000  0.000000e+000 -1.000000e+000
    outer loop
      vertex  9.600000e+001  3.000000e+000  4.000000e+001
      vertex  9.027888e+001  1.181435e+002  4.000000e+001
      vertex  9.169310e+001  1.187293e+002  4.000000e+001
    endloop
  endfacet
  facet normal  0.000000e+000  0.000000e+000 -1.000000e+000
    outer loop
      vertex  9.600000e+001  3.000000e+000  4.000000e+001
      vertex  9.169310e+001  1.187293e+002  4.000000e+001
      vertex  9.227888e+001  1.201435e+002  4.000000e+001
    endloop
  endfacet
  facet normal  0.000000e+000  -0.000000e+000 -1.000000e+000
    outer loop
      vertex  3.000000e+000  3.000000e+000  4.000000e+001
      vertex  6.721115e+000  1.201435e+002  4.000000e+001
      vertex  7.306901e+000  1.187293e+002  4.000000e+001
    endloop
  endfacet
  facet normal  0.000000e+000  -0.000000e+000 -9.999999e-001
    outer loop
      vertex  3.000000e+000  3.000000e+000  4.000000e+001
      vertex  7.306901e+000  1.187293e+002  4.000000e+001
      vertex  8.721115e+000  1.181435e+002  4.000000e+001
    endloop
  endfacet
  facet normal  0.000000e+000  0.000000e+000 -1.000000e+000
    outer loop
      vertex  3.000000e+000  3.000000e+000  4.000000e+001
      vertex  8.721115e+000  1.181435e+002  4.000000e+001
      vertex  7.306901e+000  6.270694e+000  4.000000e+001
    endloop
  endfacet
  facet normal  0.000000e+000  0.000000e+000 -1.000000e+000
    outer loop
      vertex  3.000000e+000  3.000000e+000  4.000000e+001
      vertex  7.306901e+000  6.270694e+000  4.000000e+001
      vertex  6.721115e+000  4.856481e+000  4.000000e+001
    endloop
  endfacet
  facet normal  0.000000e+000  -0.000000e+000 -9.999999e-001
    outer loop
      vertex  3.000000e+000  3.000000e+000  4.000000e+001
      vertex  6.721115e+000  4.856481e+000  4.000000e+001
      vertex  7.306901e+000  3.442267e+000  4.000000e+001
    endloop
  endfacet
  facet normal  0.000000e+000  -0.000000e+000 -1.000000e+000
    outer loop
      vertex  3.000000e+000  3.000000e+000  4.000000e+001
      vertex  7.306901e+000  3.442267e+000  4.000000e+001
      vertex  8.721115e+000  2.856481e+000  4.000000e+001
    endloop
  endfacet
  facet normal  -0.000000e+000  -0.000000e+000 -1.000000e+000
    outer loop
      vertex  3.000000e+000  3.000000e+000  4.000000e+001
      vertex  8.721115e+000  2.856481e+000  4.000000e+001
      vertex  2.175289e+001 -1.992019e+001  4.000000e+001
    endloop
  endfacet
  facet normal  -0.000000e+000  -0.000000e+000 -1.000000e+000
    outer loop
      vertex  2.842164e+001  1.550000e+002  4.000000e+001
      vertex  4.638769e+001  1.550000e+002  4.000000e+001
      vertex  4.638769e+001  1.030000e+002  4.000000e+001
    endloop
  endfacet
  facet normal  0.000000e+000  0.000000e+000 -1.000000e+000
    outer loop
      vertex  2.842164e+001  1.550000e+002  4.000000e+001
      vertex  4.638769e+001  1.030000e+002  4.000000e+001
      vertex  1.013533e+001  1.215577e+002  4.000000e+001
    endloop
  endfacet
  facet normal  0.000000e+000  0.000000e+000 -9.999999e-001
    outer loop
      vertex  2.842164e+001  1.550000e+002  4.000000e+001
      vertex  1.013533e+001  1.215577e+002  4.000000e+001
      vertex  8.721115e+000  1.221435e+002  4.000000e+001
    endloop
  endfacet
  facet normal  0.000000e+000  0.000000e+000 -9.999999e-001
    outer loop
      vertex  2.842164e+001  1.550000e+002  4.000000e+001
      vertex  8.721115e+000  1.221435e+002  4.000000e+001
      vertex  3.000000e+000  1.239291e+002  4.000000e+001
    endloop
  endfacet
  facet normal  0.000000e+000  -0.000000e+000 -1.000000e+000
    outer loop
      vertex  8.721115e+000  2.856481e+000  4.000000e+001
      vertex  1.013533e+001  3.442267e+000  4.000000e+001
      vertex  8.886467e+001  3.442267e+000  4.000000e+001
    endloop
  endfacet
  facet normal  0.000000e+000  -0.000000e+000 -9.999999e-001
    outer loop
      vertex  8.721115e+000  2.856481e+000  4.000000e+001
      vertex  8.886467e+001  3.442267e+000  4.000000e+001
      vertex  9.027888e+001  2.856481e+000  4.000000e+001
    endloop
  endfacet
  facet normal  -0.000000e+000  0.000000e+000 -1.000000e+000
    outer loop
      vertex  8.721115e+000  2.856481e+000  4.000000e+001
      vertex  9.027888e+001  2.856481e+000  4.000000e+001
      vertex  7.724712e+001 -1.992019e+001  4.000000e+001
    endloop
  endfacet
  facet normal  0.000000e+000  0.000000e+000 -1.000000e+000
    outer loop
      vertex  8.721115e+000  2.856481e+000  4.000000e+001
      vertex  7.724712e+001 -1.992019e+001  4.000000e+001
      vertex  4.950000e+001 -1.992019e+001  4.000000e+001
    endloop
  endfacet
  facet normal  0.000000e+000  0.000000e+000 -1.000000e+000
    outer loop
      vertex  8.721115e+000  2.856481e+000  4.000000e+001
      vertex  4.950000e+001 -1.992019e+001  4.000000e+001
      vertex  2.175289e+001 -1.992019e+001  4.000000e+001
    endloop
  endfacet
  facet normal  -0.000000e+000  0.000000e+000 -1.000000e+000
    outer loop
      vertex  3.000000e+000  1.239291e+002  4.000000e+001
      vertex  8.721115e+000  1.221435e+002  4.000000e+001
      vertex  7.306901e+000  1.215577e+002  4.000000e+001
    endloop
  endfacet
  facet normal  -0.000000e+000  0.000000e+000 -1.000000e+000
    outer loop
      vertex  3.000000e+000  1.239291e+002  4.000000e+001
      vertex  7.306901e+000  1.215577e+002  4.000000e+001
      vertex  6.721115e+000  1.201435e+002  4.000000e+001
    endloop
  endfacet
  facet normal  -0.000000e+000  0.000000e+000 -1.000000e+000
    outer loop
      vertex  3.000000e+000  1.239291e+002  4.000000e+001
      vertex  6.721115e+000  1.201435e+002  4.000000e+001
      vertex  3.000000e+000  3.000000e+000  4.000000e+001
    endloop
  endfacet
  facet normal  0.000000e+000  0.000000e+000 -1.000000e+000
    outer loop
      vertex  5.261231e+001  1.030000e+002  4.000000e+001
      vertex  5.261231e+001  1.550000e+002  4.000000e+001
      vertex  7.057836e+001  1.550000e+002  4.000000e+001
    endloop
  endfacet
  facet normal  0.000000e+000  -0.000000e+000 -1.000000e+000
    outer loop
      vertex  5.261231e+001  1.030000e+002  4.000000e+001
      vertex  7.057836e+001  1.550000e+002  4.000000e+001
      vertex  8.886467e+001  1.215577e+002  4.000000e+001
    endloop
  endfacet
  facet normal  0.000000e+000  0.000000e+000 -1.000000e+000
    outer loop
      vertex  5.261231e+001  1.030000e+002  4.000000e+001
      vertex  8.886467e+001  1.215577e+002  4.000000e+001
      vertex  8.827888e+001  1.201435e+002  4.000000e+001
    endloop
  endfacet
  facet normal  0.000000e+000  -0.000000e+000 -9.999999e-001
    outer loop
      vertex  5.261231e+001  1.030000e+002  4.000000e+001
      vertex  8.827888e+001  1.201435e+002  4.000000e+001
      vertex  8.886467e+001  1.187293e+002  4.000000e+001
    endloop
  endfacet
  facet normal  0.000000e+000  -0.000000e+000 -1.000000e+000
    outer loop
      vertex  5.261231e+001  1.030000e+002  4.000000e+001
      vertex  8.886467e+001  1.187293e+002  4.000000e+001
      vertex  9.027888e+001  1.181435e+002  4.000000e+001
    endloop
  endfacet
  facet normal  0.000000e+000  -0.000000e+000 -1.000000e+000
    outer loop
      vertex  5.261231e+001  1.030000e+002  4.000000e+001
      vertex  9.027888e+001  1.181435e+002  4.000000e+001
      vertex  9.027888e+001  6.856481e+000  4.000000e+001
    endloop
  endfacet
  facet normal  0.000000e+000  0.000000e+000 -1.000000e+000
    outer loop
      vertex  5.261231e+001  1.030000e+002  4.000000e+001
      vertex  9.027888e+001  6.856481e+000  4.000000e+001
      vertex  8.721115e+000  6.856481e+000  4.000000e+001
    endloop
  endfacet
  facet normal  0.000000e+000  0.000000e+000 -1.000000e+000
    outer loop
      vertex  4.638769e+001  1.030000e+002  4.000000e+001
      vertex  8.721115e+000  1.181435e+002  4.000000e+001
      vertex  1.013533e+001  1.187293e+002  4.000000e+001
    endloop
  endfacet
  facet normal  0.000000e+000  0.000000e+000 -1.000000e+000
    outer loop
      vertex  4.638769e+001  1.030000e+002  4.000000e+001
      vertex  1.013533e+001  1.187293e+002  4.000000e+001
      vertex  1.072112e+001  1.201435e+002  4.000000e+001
    endloop
  endfacet
  facet normal  0.000000e+000  0.000000e+000 -1.000000e+000
    outer loop
      vertex  4.638769e+001  1.030000e+002  4.000000e+001
      vertex  1.072112e+001  1.201435e+002  4.000000e+001
      vertex  1.013533e+001  1.215577e+002  4.000000e+001
    endloop
  endfacet
  facet normal  0.000000e+000  0.000000e+000 -1.000000e+000
    outer loop
      vertex  8.721115e+000  6.856481e+000  4.000000e+001
      vertex  7.306901e+000  6.270694e+000  4.000000e+001
      vertex  8.721115e+000  1.181435e+002  4.000000e+001
    endloop
  endfacet
  facet normal  0.000000e+000  0.000000e+000 -1.000000e+000
    outer loop
      vertex  8.721115e+000  6.856481e+000  4.000000e+001
      vertex  8.721115e+000  1.181435e+002  4.000000e+001
      vertex  4.638769e+001  1.030000e+002  4.000000e+001
    endloop
  endfacet
  facet normal  0.000000e+000  -0.000000e+000 -1.000000e+000
    outer loop
      vertex  8.721115e+000  6.856481e+000  4.000000e+001
      vertex  4.638769e+001  1.030000e+002  4.000000e+001
      vertex  4.950000e+001  1.030000e+002  4.000000e+001
    endloop
  endfacet
  facet normal  0.000000e+000  -0.000000e+000 -1.000000e+000
    outer loop
      vertex  8.721115e+000  6.856481e+000  4.000000e+001
      vertex  4.950000e+001  1.030000e+002  4.000000e+001
      vertex  5.261231e+001  1.030000e+002  4.000000e+001
    endloop
  endfacet
  facet normal  0.000000e+000  0.000000e+000 -1.000000e+000
    outer loop
      vertex  8.886467e+001  6.270694e+000  4.000000e+001
      vertex  8.721115e+000  6.856481e+000  4.000000e+001
      vertex  9.027888e+001  6.856481e+000  4.000000e+001
    endloop
  endfacet
  facet normal  0.000000e+000  0.000000e+000 -1.000000e+000
    outer loop
      vertex  8.721115e+000  6.856481e+000  4.000000e+001
      vertex  8.886467e+001  6.270694e+000  4.000000e+001
      vertex  1.013533e+001  6.270694e+000  4.000000e+001
    endloop
  endfacet
  facet normal  0.000000e+000  0.000000e+000 -1.000000e+000
    outer loop
      vertex  1.013533e+001  6.270694e+000  4.000000e+001
      vertex  8.886467e+001  6.270694e+000  4.000000e+001
      vertex  8.827888e+001  4.856481e+000  4.000000e+001
    endloop
  endfacet
  facet normal  0.000000e+000  0.000000e+000 -1.000000e+000
    outer loop
      vertex  1.013533e+001  6.270694e+000  4.000000e+001
      vertex  8.827888e+001  4.856481e+000  4.000000e+001
      vertex  1.072112e+001  4.856481e+000  4.000000e+001
    endloop
  endfacet
  facet normal  0.000000e+000  0.000000e+000 -1.000000e+000
    outer loop
      vertex  1.072112e+001  4.856481e+000  4.000000e+001
      vertex  8.827888e+001  4.856481e+000  4.000000e+001
      vertex  8.886467e+001  3.442267e+000  4.000000e+001
    endloop
  endfacet
  facet normal  0.000000e+000  0.000000e+000 -1.000000e+000
    outer loop
      vertex  1.072112e+001  4.856481e+000  4.000000e+001
      vertex  8.886467e+001  3.442267e+000  4.000000e+001
      vertex  1.013533e+001  3.442267e+000  4.000000e+001
    endloop
  endfacet
  facet normal -3.826869e-001  9.238781e-001  0.000000e+000
    outer loop
      vertex  8.721115e+000  1.181435e+002  4.000000e+001
      vertex  1.013533e+001  1.187293e+002  4.300000e+001
      vertex  1.013533e+001  1.187293e+002  4.000000e+001
    endloop
  endfacet
  facet normal -9.238788e-001  3.826850e-001  0.000000e+000
    outer loop
      vertex  1.013533e+001  1.187293e+002  4.000000e+001
      vertex  1.013533e+001  1.187293e+002  4.300000e+001
      vertex  1.072112e+001  1.201435e+002  4.300000e+001
    endloop
  endfacet
  facet normal -9.238788e-001  3.826850e-001  0.000000e+000
    outer loop
      vertex  1.013533e+001  1.187293e+002  4.000000e+001
      vertex  1.072112e+001  1.201435e+002  4.300000e+001
      vertex  1.072112e+001  1.201435e+002  4.000000e+001
    endloop
  endfacet
  facet normal -3.826869e-001  9.238781e-001  0.000000e+000
    outer loop
      vertex  1.013533e+001  1.187293e+002  4.300000e+001
      vertex  8.721115e+000  1.181435e+002  4.000000e+001
      vertex  8.721115e+000  1.181435e+002  4.300000e+001
    endloop
  endfacet
  facet normal  3.826868e-001  9.238781e-001  0.000000e+000
    outer loop
      vertex  8.721115e+000  1.181435e+002  4.300000e+001
      vertex  8.721115e+000  1.181435e+002  4.000000e+001
      vertex  7.306901e+000  1.187293e+002  4.000000e+001
    endloop
  endfacet
  facet normal  3.826868e-001  9.238781e-001  -0.000000e+000
    outer loop
      vertex  8.721115e+000  1.181435e+002  4.300000e+001
      vertex  7.306901e+000  1.187293e+002  4.000000e+001
      vertex  7.306901e+000  1.187293e+002  4.300000e+001
    endloop
  endfacet
  facet normal  9.238790e-001  3.826848e-001  0.000000e+000
    outer loop
      vertex  7.306901e+000  1.187293e+002  4.300000e+001
      vertex  7.306901e+000  1.187293e+002  4.000000e+001
      vertex  6.721115e+000  1.201435e+002  4.000000e+001
    endloop
  endfacet
  facet normal  9.238790e-001  3.826848e-001  -0.000000e+000
    outer loop
      vertex  7.306901e+000  1.187293e+002  4.300000e+001
      vertex  6.721115e+000  1.201435e+002  4.000000e+001
      vertex  6.721115e+000  1.201435e+002  4.300000e+001
    endloop
  endfacet
  facet normal  3.826826e-001 -9.238799e-001  0.000000e+000
    outer loop
      vertex  8.721115e+000  1.221435e+002  4.000000e+001
      vertex  7.306901e+000  1.215577e+002  4.300000e+001
      vertex  7.306901e+000  1.215577e+002  4.000000e+001
    endloop
  endfacet
  facet normal  9.238797e-001 -3.826830e-001  0.000000e+000
    outer loop
      vertex  7.306901e+000  1.215577e+002  4.000000e+001
      vertex  7.306901e+000  1.215577e+002  4.300000e+001
      vertex  6.721115e+000  1.201435e+002  4.300000e+001
    endloop
  endfacet
  facet normal  9.238797e-001 -3.826830e-001  0.000000e+000
    outer loop
      vertex  7.306901e+000  1.215577e+002  4.000000e+001
      vertex  6.721115e+000  1.201435e+002  4.300000e+001
      vertex  6.721115e+000  1.201435e+002  4.000000e+001
    endloop
  endfacet
  facet normal  3.826826e-001 -9.238799e-001  0.000000e+000
    outer loop
      vertex  7.306901e+000  1.215577e+002  4.300000e+001
      vertex  8.721115e+000  1.221435e+002  4.000000e+001
      vertex  8.721115e+000  1.221435e+002  4.300000e+001
    endloop
  endfacet
  facet normal -3.826827e-001 -9.238798e-001  -0.000000e+000
    outer loop
      vertex  8.721115e+000  1.221435e+002  4.300000e+001
      vertex  8.721115e+000  1.221435e+002  4.000000e+001
      vertex  1.013533e+001  1.215577e+002  4.000000e+001
    endloop
  endfacet
  facet normal -3.826827e-001 -9.238798e-001  0.000000e+000
    outer loop
      vertex  8.721115e+000  1.221435e+002  4.300000e+001
      vertex  1.013533e+001  1.215577e+002  4.000000e+001
      vertex  1.013533e+001  1.215577e+002  4.300000e+001
    endloop
  endfacet
  facet normal -9.238796e-001 -3.826833e-001  -0.000000e+000
    outer loop
      vertex  1.013533e+001  1.215577e+002  4.300000e+001
      vertex  1.013533e+001  1.215577e+002  4.000000e+001
      vertex  1.072112e+001  1.201435e+002  4.000000e+001
    endloop
  endfacet
  facet normal -9.238796e-001 -3.826833e-001  0.000000e+000
    outer loop
      vertex  1.013533e+001  1.215577e+002  4.300000e+001
      vertex  1.072112e+001  1.201435e+002  4.000000e+001
      vertex  1.072112e+001  1.201435e+002  4.300000e+001
    endloop
  endfacet
  facet normal  3.826822e-001 -9.238800e-001  0.000000e+000
    outer loop
      vertex  9.027888e+001  1.221435e+002  4.000000e+001
      vertex  8.886467e+001  1.215577e+002  4.300000e+001
      vertex  8.886467e+001  1.215577e+002  4.000000e+001
    endloop
  endfacet
  facet normal  9.238800e-001 -3.826822e-001  0.000000e+000
    outer loop
      vertex  8.886467e+001  1.215577e+002  4.000000e+001
      vertex  8.886467e+001  1.215577e+002  4.300000e+001
      vertex  8.827888e+001  1.201435e+002  4.300000e+001
    endloop
  endfacet
  facet normal  9.238800e-001 -3.826822e-001  0.000000e+000
    outer loop
      vertex  8.886467e+001  1.215577e+002  4.000000e+001
      vertex  8.827888e+001  1.201435e+002  4.300000e+001
      vertex  8.827888e+001  1.201435e+002  4.000000e+001
    endloop
  endfacet
  facet normal  3.826822e-001 -9.238800e-001  0.000000e+000
    outer loop
      vertex  8.886467e+001  1.215577e+002  4.300000e+001
      vertex  9.027888e+001  1.221435e+002  4.000000e+001
      vertex  9.027888e+001  1.221435e+002  4.300000e+001
    endloop
  endfacet
  facet normal -3.826822e-001 -9.238800e-001  -0.000000e+000
    outer loop
      vertex  9.027888e+001  1.221435e+002  4.300000e+001
      vertex  9.027888e+001  1.221435e+002  4.000000e+001
      vertex  9.169310e+001  1.215577e+002  4.000000e+001
    endloop
  endfacet
  facet normal -3.826822e-001 -9.238800e-001  0.000000e+000
    outer loop
      vertex  9.027888e+001  1.221435e+002  4.300000e+001
      vertex  9.169310e+001  1.215577e+002  4.000000e+001
      vertex  9.169310e+001  1.215577e+002  4.300000e+001
    endloop
  endfacet
  facet normal -9.238800e-001 -3.826822e-001  -0.000000e+000
    outer loop
      vertex  9.169310e+001  1.215577e+002  4.300000e+001
      vertex  9.169310e+001  1.215577e+002  4.000000e+001
      vertex  9.227888e+001  1.201435e+002  4.000000e+001
    endloop
  endfacet
  facet normal -9.238800e-001 -3.826822e-001  0.000000e+000
    outer loop
      vertex  9.169310e+001  1.215577e+002  4.300000e+001
      vertex  9.227888e+001  1.201435e+002  4.000000e+001
      vertex  9.227888e+001  1.201435e+002  4.300000e+001
    endloop
  endfacet
  facet normal -3.826865e-001  9.238783e-001  0.000000e+000
    outer loop
      vertex  9.027888e+001  1.181435e+002  4.000000e+001
      vertex  9.169310e+001  1.187293e+002  4.300000e+001
      vertex  9.169310e+001  1.187293e+002  4.000000e+001
    endloop
  endfacet
  facet normal -9.238793e-001  3.826840e-001  0.000000e+000
    outer loop
      vertex  9.169310e+001  1.187293e+002  4.000000e+001
      vertex  9.169310e+001  1.187293e+002  4.300000e+001
      vertex  9.227888e+001  1.201435e+002  4.300000e+001
    endloop
  endfacet
  facet normal -9.238793e-001  3.826840e-001  0.000000e+000
    outer loop
      vertex  9.169310e+001  1.187293e+002  4.000000e+001
      vertex  9.227888e+001  1.201435e+002  4.300000e+001
      vertex  9.227888e+001  1.201435e+002  4.000000e+001
    endloop
  endfacet
  facet normal -3.826865e-001  9.238783e-001  0.000000e+000
    outer loop
      vertex  9.169310e+001  1.187293e+002  4.300000e+001
      vertex  9.027888e+001  1.181435e+002  4.000000e+001
      vertex  9.027888e+001  1.181435e+002  4.300000e+001
    endloop
  endfacet
  facet normal  3.826865e-001  9.238783e-001  0.000000e+000
    outer loop
      vertex  9.027888e+001  1.181435e+002  4.300000e+001
      vertex  9.027888e+001  1.181435e+002  4.000000e+001
      vertex  8.886467e+001  1.187293e+002  4.000000e+001
    endloop
  endfacet
  facet normal  3.826865e-001  9.238783e-001  -0.000000e+000
    outer loop
      vertex  9.027888e+001  1.181435e+002  4.300000e+001
      vertex  8.886467e+001  1.187293e+002  4.000000e+001
      vertex  8.886467e+001  1.187293e+002  4.300000e+001
    endloop
  endfacet
  facet normal  9.238793e-001  3.826840e-001  0.000000e+000
    outer loop
      vertex  8.886467e+001  1.187293e+002  4.300000e+001
      vertex  8.886467e+001  1.187293e+002  4.000000e+001
      vertex  8.827888e+001  1.201435e+002  4.000000e+001
    endloop
  endfacet
  facet normal  9.238793e-001  3.826840e-001  -0.000000e+000
    outer loop
      vertex  8.886467e+001  1.187293e+002  4.300000e+001
      vertex  8.827888e+001  1.201435e+002  4.000000e+001
      vertex  8.827888e+001  1.201435e+002  4.300000e+001
    endloop
  endfacet
  facet normal -3.826835e-001  9.238796e-001  0.000000e+000
    outer loop
      vertex  8.721115e+000  2.856481e+000  4.000000e+001
      vertex  1.013533e+001  3.442267e+000  4.300000e+001
      vertex  1.013533e+001  3.442267e+000  4.000000e+001
    endloop
  endfacet
  facet normal -9.238794e-001  3.826837e-001  0.000000e+000
    outer loop
      vertex  1.013533e+001  3.442267e+000  4.000000e+001
      vertex  1.013533e+001  3.442267e+000  4.300000e+001
      vertex  1.072112e+001  4.856481e+000  4.300000e+001
    endloop
  endfacet
  facet normal -9.238794e-001  3.826837e-001  0.000000e+000
    outer loop
      vertex  1.013533e+001  3.442267e+000  4.000000e+001
      vertex  1.072112e+001  4.856481e+000  4.300000e+001
      vertex  1.072112e+001  4.856481e+000  4.000000e+001
    endloop
  endfacet
  facet normal -3.826835e-001  9.238796e-001  0.000000e+000
    outer loop
      vertex  1.013533e+001  3.442267e+000  4.300000e+001
      vertex  8.721115e+000  2.856481e+000  4.000000e+001
      vertex  8.721115e+000  2.856481e+000  4.300000e+001
    endloop
  endfacet
  facet normal  3.826834e-001  9.238796e-001  0.000000e+000
    outer loop
      vertex  8.721115e+000  2.856481e+000  4.300000e+001
      vertex  8.721115e+000  2.856481e+000  4.000000e+001
      vertex  7.306901e+000  3.442267e+000  4.000000e+001
    endloop
  endfacet
  facet normal  3.826834e-001  9.238796e-001  -0.000000e+000
    outer loop
      vertex  8.721115e+000  2.856481e+000  4.300000e+001
      vertex  7.306901e+000  3.442267e+000  4.000000e+001
      vertex  7.306901e+000  3.442267e+000  4.300000e+001
    endloop
  endfacet
  facet normal  9.238796e-001  3.826834e-001  0.000000e+000
    outer loop
      vertex  7.306901e+000  3.442267e+000  4.300000e+001
      vertex  7.306901e+000  3.442267e+000  4.000000e+001
      vertex  6.721115e+000  4.856481e+000  4.000000e+001
    endloop
  endfacet
  facet normal  9.238796e-001  3.826834e-001  -0.000000e+000
    outer loop
      vertex  7.306901e+000  3.442267e+000  4.300000e+001
      vertex  6.721115e+000  4.856481e+000  4.000000e+001
      vertex  6.721115e+000  4.856481e+000  4.300000e+001
    endloop
  endfacet
  facet normal  3.826834e-001 -9.238796e-001  0.000000e+000
    outer loop
      vertex  8.721115e+000  6.856481e+000  4.000000e+001
      vertex  7.306901e+000  6.270694e+000  4.300000e+001
      vertex  7.306901e+000  6.270694e+000  4.000000e+001
    endloop
  endfacet
  facet normal  9.238796e-001 -3.826834e-001  0.000000e+000
    outer loop
      vertex  7.306901e+000  6.270694e+000  4.000000e+001
      vertex  7.306901e+000  6.270694e+000  4.300000e+001
      vertex  6.721115e+000  4.856481e+000  4.300000e+001
    endloop
  endfacet
  facet normal  9.238796e-001 -3.826834e-001  0.000000e+000
    outer loop
      vertex  7.306901e+000  6.270694e+000  4.000000e+001
      vertex  6.721115e+000  4.856481e+000  4.300000e+001
      vertex  6.721115e+000  4.856481e+000  4.000000e+001
    endloop
  endfacet
  facet normal  3.826834e-001 -9.238796e-001  0.000000e+000
    outer loop
      vertex  7.306901e+000  6.270694e+000  4.300000e+001
      vertex  8.721115e+000  6.856481e+000  4.000000e+001
      vertex  8.721115e+000  6.856481e+000  4.300000e+001
    endloop
  endfacet
  facet normal -3.826835e-001 -9.238796e-001  -0.000000e+000
    outer loop
      vertex  8.721115e+000  6.856481e+000  4.300000e+001
      vertex  8.721115e+000  6.856481e+000  4.000000e+001
      vertex  1.013533e+001  6.270694e+000  4.000000e+001
    endloop
  endfacet
  facet normal -3.826835e-001 -9.238796e-001  0.000000e+000
    outer loop
      vertex  8.721115e+000  6.856481e+000  4.300000e+001
      vertex  1.013533e+001  6.270694e+000  4.000000e+001
      vertex  1.013533e+001  6.270694e+000  4.300000e+001
    endloop
  endfacet
  facet normal -9.238795e-001 -3.826836e-001  -0.000000e+000
    outer loop
      vertex  1.013533e+001  6.270694e+000  4.300000e+001
      vertex  1.013533e+001  6.270694e+000  4.000000e+001
      vertex  1.072112e+001  4.856481e+000  4.000000e+001
    endloop
  endfacet
  facet normal -9.238795e-001 -3.826836e-001  0.000000e+000
    outer loop
      vertex  1.013533e+001  6.270694e+000  4.300000e+001
      vertex  1.072112e+001  4.856481e+000  4.000000e+001
      vertex  1.072112e+001  4.856481e+000  4.300000e+001
    endloop
  endfacet
  facet normal  3.826830e-001 -9.238797e-001  0.000000e+000
    outer loop
      vertex  9.027888e+001  6.856481e+000  4.000000e+001
      vertex  8.886467e+001  6.270694e+000  4.300000e+001
      vertex  8.886467e+001  6.270694e+000  4.000000e+001
    endloop
  endfacet
  facet normal  9.238799e-001 -3.826826e-001  0.000000e+000
    outer loop
      vertex  8.886467e+001  6.270694e+000  4.000000e+001
      vertex  8.886467e+001  6.270694e+000  4.300000e+001
      vertex  8.827888e+001  4.856481e+000  4.300000e+001
    endloop
  endfacet
  facet normal  9.238799e-001 -3.826826e-001  0.000000e+000
    outer loop
      vertex  8.886467e+001  6.270694e+000  4.000000e+001
      vertex  8.827888e+001  4.856481e+000  4.300000e+001
      vertex  8.827888e+001  4.856481e+000  4.000000e+001
    endloop
  endfacet
  facet normal  3.826830e-001 -9.238797e-001  0.000000e+000
    outer loop
      vertex  8.886467e+001  6.270694e+000  4.300000e+001
      vertex  9.027888e+001  6.856481e+000  4.000000e+001
      vertex  9.027888e+001  6.856481e+000  4.300000e+001
    endloop
  endfacet
  facet normal -3.826830e-001 -9.238797e-001  -0.000000e+000
    outer loop
      vertex  9.027888e+001  6.856481e+000  4.300000e+001
      vertex  9.027888e+001  6.856481e+000  4.000000e+001
      vertex  9.169310e+001  6.270694e+000  4.000000e+001
    endloop
  endfacet
  facet normal -3.826830e-001 -9.238797e-001  0.000000e+000
    outer loop
      vertex  9.027888e+001  6.856481e+000  4.300000e+001
      vertex  9.169310e+001  6.270694e+000  4.000000e+001
      vertex  9.169310e+001  6.270694e+000  4.300000e+001
    endloop
  endfacet
  facet normal -9.238799e-001 -3.826826e-001  -0.000000e+000
    outer loop
      vertex  9.169310e+001  6.270694e+000  4.300000e+001
      vertex  9.169310e+001  6.270694e+000  4.000000e+001
      vertex  9.227888e+001  4.856481e+000  4.000000e+001
    endloop
  endfacet
  facet normal -9.238799e-001 -3.826826e-001  0.000000e+000
    outer loop
      vertex  9.169310e+001  6.270694e+000  4.300000e+001
      vertex  9.227888e+001  4.856481e+000  4.000000e+001
      vertex  9.227888e+001  4.856481e+000  4.300000e+001
    endloop
  endfacet
  facet normal -3.826830e-001  9.238797e-001  0.000000e+000
    outer loop
      vertex  9.027888e+001  2.856481e+000  4.000000e+001
      vertex  9.169310e+001  3.442267e+000  4.300000e+001
      vertex  9.169310e+001  3.442267e+000  4.000000e+001
    endloop
  endfacet
  facet normal -9.238799e-001  3.826826e-001  0.000000e+000
    outer loop
      vertex  9.169310e+001  3.442267e+000  4.000000e+001
      vertex  9.169310e+001  3.442267e+000  4.300000e+001
      vertex  9.227888e+001  4.856481e+000  4.300000e+001
    endloop
  endfacet
  facet normal -9.238799e-001  3.826826e-001  0.000000e+000
    outer loop
      vertex  9.169310e+001  3.442267e+000  4.000000e+001
      vertex  9.227888e+001  4.856481e+000  4.300000e+001
      vertex  9.227888e+001  4.856481e+000  4.000000e+001
    endloop
  endfacet
  facet normal -3.826830e-001  9.238797e-001  0.000000e+000
    outer loop
      vertex  9.169310e+001  3.442267e+000  4.300000e+001
      vertex  9.027888e+001  2.856481e+000  4.000000e+001
      vertex  9.027888e+001  2.856481e+000  4.300000e+001
    endloop
  endfacet
  facet normal  3.826830e-001  9.238797e-001  0.000000e+000
    outer loop
      vertex  9.027888e+001  2.856481e+000  4.300000e+001
      vertex  9.027888e+001  2.856481e+000  4.000000e+001
      vertex  8.886467e+001  3.442267e+000  4.000000e+001
    endloop
  endfacet
  facet normal  3.826830e-001  9.238797e-001  -0.000000e+000
    outer loop
      vertex  9.027888e+001  2.856481e+000  4.300000e+001
      vertex  8.886467e+001  3.442267e+000  4.000000e+001
      vertex  8.886467e+001  3.442267e+000  4.300000e+001
    endloop
  endfacet
  facet normal  9.238799e-001  3.826826e-001  0.000000e+000
    outer loop
      vertex  8.886467e+001  3.442267e+000  4.300000e+001
      vertex  8.886467e+001  3.442267e+000  4.000000e+001
      vertex  8.827888e+001  4.856481e+000  4.000000e+001
    endloop
  endfacet
  facet normal  9.238799e-001  3.826826e-001  -0.000000e+000
    outer loop
      vertex  8.886467e+001  3.442267e+000  4.300000e+001
      vertex  8.827888e+001  4.856481e+000  4.000000e+001
      vertex  8.827888e+001  4.856481e+000  4.300000e+001
    endloop
  endfacet
  facet normal  0.000000e+000 -1.000000e+000  0.000000e+000
    outer loop
      vertex  5.261231e+001  1.550000e+002  4.000000e+001
      vertex  5.261231e+001  1.550000e+002  0.000000e+000
      vertex  7.057836e+001  1.550000e+002  4.000000e+001
    endloop
  endfacet
  facet normal  0.000000e+000 -1.000000e+000  -0.000000e+000
    outer loop
      vertex  7.057836e+001  1.550000e+002  4.000000e+001
      vertex  5.261231e+001  1.550000e+002  0.000000e+000
      vertex  7.057836e+001  1.550000e+002  0.000000e+000
    endloop
  endfacet
  facet normal  0.000000e+000 -1.000000e+000  0.000000e+000
    outer loop
      vertex  2.842164e+001  1.550000e+002  4.000000e+001
      vertex  2.842164e+001  1.550000e+002  0.000000e+000
      vertex  4.638769e+001  1.550000e+002  4.000000e+001
    endloop
  endfacet
  facet normal  0.000000e+000 -1.000000e+000  -0.000000e+000
    outer loop
      vertex  4.638769e+001  1.550000e+002  4.000000e+001
      vertex  2.842164e+001  1.550000e+002  0.000000e+000
      vertex  4.638769e+001  1.550000e+002  0.000000e+000
    endloop
  endfacet
  facet normal  0.000000e+000  1.000000e+000  0.000000e+000
    outer loop
      vertex  7.200000e+001  1.580000e+002  0.000000e+000
      vertex  5.261231e+001  1.580000e+002  0.000000e+000
      vertex  7.200000e+001  1.580000e+002  4.300000e+001
    endloop
  endfacet
  facet normal  0.000000e+000  1.000000e+000  0.000000e+000
    outer loop
      vertex  7.200000e+001  1.580000e+002  4.300000e+001
      vertex  5.261231e+001  1.580000e+002  0.000000e+000
      vertex  5.261231e+001  1.580000e+002  4.300000e+001
    endloop
  endfacet
  facet normal  0.000000e+000  1.000000e+000  0.000000e+000
    outer loop
      vertex  4.638769e+001  1.580000e+002  0.000000e+000
      vertex  2.700000e+001  1.580000e+002  0.000000e+000
      vertex  4.638769e+001  1.580000e+002  4.300000e+001
    endloop
  endfacet
  facet normal  0.000000e+000  1.000000e+000  0.000000e+000
    outer loop
      vertex  4.638769e+001  1.580000e+002  4.300000e+001
      vertex  2.700000e+001  1.580000e+002  0.000000e+000
      vertex  2.700000e+001  1.580000e+002  4.300000e+001
    endloop
  endfacet
  facet normal  0.000000e+000  0.000000e+000 -1.000000e+000
    outer loop
      vertex  4.638769e+001  1.580000e+002  0.000000e+000
      vertex  2.842164e+001  1.550000e+002  0.000000e+000
      vertex  2.700000e+001  1.580000e+002  0.000000e+000
    endloop
  endfacet
  facet normal  0.000000e+000  0.000000e+000 -1.000000e+000
    outer loop
      vertex  2.842164e+001  1.550000e+002  0.000000e+000
      vertex -1.509903e-013  1.250000e+002  0.000000e+000
      vertex  2.700000e+001  1.580000e+002  0.000000e+000
    endloop
  endfacet
  facet normal  0.000000e+000  0.000000e+000 -1.000000e+000
    outer loop
      vertex  4.638769e+001  1.550000e+002  0.000000e+000
      vertex  2.842164e+001  1.550000e+002  0.000000e+000
      vertex  4.638769e+001  1.580000e+002  0.000000e+000
    endloop
  endfacet
  facet normal  0.000000e+000  0.000000e+000 -1.000000e+000
    outer loop
      vertex  9.900000e+001  1.250000e+002  0.000000e+000
      vertex  9.900000e+001  1.929110e+000  0.000000e+000
      vertex  9.600000e+001  3.000000e+000  0.000000e+000
    endloop
  endfacet
  facet normal  0.000000e+000  0.000000e+000 -1.000000e+000
    outer loop
      vertex  9.900000e+001  1.250000e+002  0.000000e+000
      vertex  9.600000e+001  3.000000e+000  0.000000e+000
      vertex  9.600000e+001  1.239291e+002  0.000000e+000
    endloop
  endfacet
  facet normal  0.000000e+000  0.000000e+000 -1.000000e+000
    outer loop
      vertex  9.900000e+001  1.250000e+002  0.000000e+000
      vertex  9.600000e+001  1.239291e+002  0.000000e+000
      vertex  7.057836e+001  1.550000e+002  0.000000e+000
    endloop
  endfacet
  facet normal  0.000000e+000  0.000000e+000 -9.999999e-001
    outer loop
      vertex  9.900000e+001  1.250000e+002  0.000000e+000
      vertex  7.057836e+001  1.550000e+002  0.000000e+000
      vertex  7.200000e+001  1.580000e+002  0.000000e+000
    endloop
  endfacet
  facet normal  0.000000e+000  0.000000e+000 -1.000000e+000
    outer loop
      vertex  7.866875e+001 -2.292019e+001  0.000000e+000
      vertex  2.033125e+001 -2.292019e+001  0.000000e+000
      vertex  2.175289e+001 -1.992019e+001  0.000000e+000
    endloop
  endfacet
  facet normal  0.000000e+000  0.000000e+000 -9.999999e-001
    outer loop
      vertex  7.866875e+001 -2.292019e+001  0.000000e+000
      vertex  2.175289e+001 -1.992019e+001  0.000000e+000
      vertex  4.950000e+001 -1.992019e+001  0.000000e+000
    endloop
  endfacet
  facet normal  0.000000e+000  0.000000e+000 -1.000000e+000
    outer loop
      vertex  7.866875e+001 -2.292019e+001  0.000000e+000
      vertex  4.950000e+001 -1.992019e+001  0.000000e+000
      vertex  7.724712e+001 -1.992019e+001  0.000000e+000
    endloop
  endfacet
  facet normal  0.000000e+000  0.000000e+000 -1.000000e+000
    outer loop
      vertex  7.866875e+001 -2.292019e+001  0.000000e+000
      vertex  7.724712e+001 -1.992019e+001  0.000000e+000
      vertex  9.600000e+001  3.000000e+000  0.000000e+000
    endloop
  endfacet
  facet normal  0.000000e+000  -0.000000e+000 -1.000000e+000
    outer loop
      vertex  7.866875e+001 -2.292019e+001  0.000000e+000
      vertex  9.600000e+001  3.000000e+000  0.000000e+000
      vertex  9.900000e+001  1.929110e+000  0.000000e+000
    endloop
  endfacet
  facet normal  0.000000e+000  0.000000e+000 -1.000000e+000
    outer loop
      vertex  5.261231e+001  1.550000e+002  0.000000e+000
      vertex  5.261231e+001  1.580000e+002  0.000000e+000
      vertex  7.057836e+001  1.550000e+002  0.000000e+000
    endloop
  endfacet
  facet normal  0.000000e+000  0.000000e+000 -9.999999e-001
    outer loop
      vertex  7.057836e+001  1.550000e+002  0.000000e+000
      vertex  5.261231e+001  1.580000e+002  0.000000e+000
      vertex  7.200000e+001  1.580000e+002  0.000000e+000
    endloop
  endfacet
  facet normal  0.000000e+000  0.000000e+000 -1.000000e+000
    outer loop
      vertex  2.842164e+001  1.550000e+002  0.000000e+000
      vertex  3.000000e+000  1.239291e+002  0.000000e+000
      vertex -1.509903e-013  1.250000e+002  0.000000e+000
    endloop
  endfacet
  facet normal  0.000000e+000  0.000000e+000 -1.000000e+000
    outer loop
      vertex -1.509903e-013  1.250000e+002  0.000000e+000
      vertex  3.000000e+000  1.239291e+002  0.000000e+000
      vertex  3.000000e+000  3.000000e+000  0.000000e+000
    endloop
  endfacet
  facet normal  -0.000000e+000  0.000000e+000 -1.000000e+000
    outer loop
      vertex -1.509903e-013  1.250000e+002  0.000000e+000
      vertex  3.000000e+000  3.000000e+000  0.000000e+000
      vertex -1.423279e-013  1.929110e+000  0.000000e+000
    endloop
  endfacet
  facet normal  0.000000e+000  0.000000e+000 -1.000000e+000
    outer loop
      vertex -1.423279e-013  1.929110e+000  0.000000e+000
      vertex  3.000000e+000  3.000000e+000  0.000000e+000
      vertex  2.175289e+001 -1.992019e+001  0.000000e+000
    endloop
  endfacet
  facet normal  -0.000000e+000  0.000000e+000 -1.000000e+000
    outer loop
      vertex -1.423279e-013  1.929110e+000  0.000000e+000
      vertex  2.175289e+001 -1.992019e+001  0.000000e+000
      vertex  2.033125e+001 -2.292019e+001  0.000000e+000
    endloop
  endfacet
  facet normal  9.999999e-001  0.000000e+000  0.000000e+000
    outer loop
      vertex  4.638769e+001  1.030000e+002  4.300000e+001
      vertex  4.638769e+001  1.030000e+002  4.000000e+001
      vertex  4.638769e+001  1.580000e+002  4.300000e+001
    endloop
  endfacet
  facet normal  1.000000e+000  0.000000e+000  0.000000e+000
    outer loop
      vertex  4.638769e+001  1.580000e+002  4.300000e+001
      vertex  4.638769e+001  1.030000e+002  4.000000e+001
      vertex  4.638769e+001  1.550000e+002  4.000000e+001
    endloop
  endfacet
  facet normal  1.000000e+000  -0.000000e+000  0.000000e+000
    outer loop
      vertex  4.638769e+001  1.580000e+002  4.300000e+001
      vertex  4.638769e+001  1.550000e+002  4.000000e+001
      vertex  4.638769e+001  1.580000e+002  0.000000e+000
    endloop
  endfacet
  facet normal  1.000000e+000  0.000000e+000  0.000000e+000
    outer loop
      vertex  4.638769e+001  1.580000e+002  0.000000e+000
      vertex  4.638769e+001  1.550000e+002  4.000000e+001
      vertex  4.638769e+001  1.550000e+002  0.000000e+000
    endloop
  endfacet
  facet normal  0.000000e+000  1.000000e+000  0.000000e+000
    outer loop
      vertex  4.638769e+001  1.030000e+002  4.300000e+001
      vertex  4.950000e+001  1.030000e+002  4.300000e+001
      vertex  4.638769e+001  1.030000e+002  4.000000e+001
    endloop
  endfacet
  facet normal  0.000000e+000  1.000000e+000  0.000000e+000
    outer loop
      vertex  4.638769e+001  1.030000e+002  4.000000e+001
      vertex  4.950000e+001  1.030000e+002  4.300000e+001
      vertex  4.950000e+001  1.030000e+002  4.000000e+001
    endloop
  endfacet
  facet normal  0.000000e+000  1.000000e+000  0.000000e+000
    outer loop
      vertex  4.950000e+001  1.030000e+002  4.300000e+001
      vertex  5.261231e+001  1.030000e+002  4.300000e+001
      vertex  4.950000e+001  1.030000e+002  4.000000e+001
    endloop
  endfacet
  facet normal  0.000000e+000  1.000000e+000  0.000000e+000
    outer loop
      vertex  4.950000e+001  1.030000e+002  4.000000e+001
      vertex  5.261231e+001  1.030000e+002  4.300000e+001
      vertex  5.261231e+001  1.030000e+002  4.000000e+001
    endloop
  endfacet
  facet normal -9.999999e-001  -0.000000e+000  0.000000e+000
    outer loop
      vertex  5.261231e+001  1.030000e+002  4.300000e+001
      vertex  5.261231e+001  1.580000e+002  4.300000e+001
      vertex  5.261231e+001  1.030000e+002  4.000000e+001
    endloop
  endfacet
  facet normal -1.000000e+000  0.000000e+000  0.000000e+000
    outer loop
      vertex  5.261231e+001  1.030000e+002  4.000000e+001
      vertex  5.261231e+001  1.580000e+002  4.300000e+001
      vertex  5.261231e+001  1.550000e+002  4.000000e+001
    endloop
  endfacet
  facet normal -1.000000e+000  0.000000e+000  0.000000e+000
    outer loop
      vertex  5.261231e+001  1.580000e+002  4.300000e+001
      vertex  5.261231e+001  1.580000e+002  0.000000e+000
      vertex  5.261231e+001  1.550000e+002  4.000000e+001
    endloop
  endfacet
  facet normal -1.000000e+000  0.000000e+000  0.000000e+000
    outer loop
      vertex  5.261231e+001  1.550000e+002  4.000000e+001
      vertex  5.261231e+001  1.580000e+002  0.000000e+000
      vertex  5.261231e+001  1.550000e+002  0.000000e+000
    endloop
  endfacet
  facet normal  1.000000e+000  -0.000000e+000  0.000000e+000
    outer loop
      vertex  9.900000e+001  1.250000e+002  4.300000e+001
      vertex  9.900000e+001  1.929110e+000  4.300000e+001
      vertex  9.900000e+001  1.250000e+002  0.000000e+000
    endloop
  endfacet
  facet normal  1.000000e+000  0.000000e+000  0.000000e+000
    outer loop
      vertex  9.900000e+001  1.250000e+002  0.000000e+000
      vertex  9.900000e+001  1.929110e+000  4.300000e+001
      vertex  9.900000e+001  1.929110e+000  0.000000e+000
    endloop
  endfacet
  facet normal  7.739573e-001 -6.332377e-001  0.000000e+000
    outer loop
      vertex  9.900000e+001  1.929110e+000  0.000000e+000
      vertex  9.900000e+001  1.929110e+000  4.300000e+001
      vertex  7.866875e+001 -2.292019e+001  0.000000e+000
    endloop
  endfacet
  facet normal  7.739573e-001 -6.332377e-001  0.000000e+000
    outer loop
      vertex  7.866875e+001 -2.292019e+001  0.000000e+000
      vertex  9.900000e+001  1.929110e+000  4.300000e+001
      vertex  7.866875e+001 -2.292019e+001  4.300000e+001
    endloop
  endfacet
  facet normal  7.739573e-001  6.332378e-001  0.000000e+000
    outer loop
      vertex  7.200000e+001  1.580000e+002  0.000000e+000
      vertex  7.200000e+001  1.580000e+002  4.300000e+001
      vertex  9.900000e+001  1.250000e+002  0.000000e+000
    endloop
  endfacet
  facet normal  7.739573e-001  6.332378e-001  -0.000000e+000
    outer loop
      vertex  9.900000e+001  1.250000e+002  0.000000e+000
      vertex  7.200000e+001  1.580000e+002  4.300000e+001
      vertex  9.900000e+001  1.250000e+002  4.300000e+001
    endloop
  endfacet
  facet normal  0.000000e+000 -1.000000e+000  -0.000000e+000
    outer loop
      vertex  7.866875e+001 -2.292019e+001  0.000000e+000
      vertex  7.866875e+001 -2.292019e+001  4.300000e+001
      vertex  2.033125e+001 -2.292019e+001  0.000000e+000
    endloop
  endfacet
  facet normal  0.000000e+000 -1.000000e+000  0.000000e+000
    outer loop
      vertex  2.033125e+001 -2.292019e+001  0.000000e+000
      vertex  7.866875e+001 -2.292019e+001  4.300000e+001
      vertex  2.033125e+001 -2.292019e+001  4.300000e+001
    endloop
  endfacet
  facet normal -7.739573e-001  6.332378e-001  0.000000e+000
    outer loop
      vertex  2.700000e+001  1.580000e+002  0.000000e+000
      vertex -1.509903e-013  1.250000e+002  0.000000e+000
      vertex  2.700000e+001  1.580000e+002  4.300000e+001
    endloop
  endfacet
  facet normal -7.739573e-001  6.332378e-001  0.000000e+000
    outer loop
      vertex  2.700000e+001  1.580000e+002  4.300000e+001
      vertex -1.509903e-013  1.250000e+002  0.000000e+000
      vertex -1.563194e-013  1.250000e+002  4.300000e+001
    endloop
  endfacet
  facet normal -1.000000e+000 -1.136868e-016 -1.239319e-016
    outer loop
      vertex -1.563194e-013  1.250000e+002  4.300000e+001
      vertex -1.509903e-013  1.250000e+002  0.000000e+000
      vertex -1.423279e-013  1.929110e+000  4.300000e+001
    endloop
  endfacet
  facet normal -1.000000e+000 -7.038597e-017  -0.000000e+000
    outer loop
      vertex -1.423279e-013  1.929110e+000  4.300000e+001
      vertex -1.509903e-013  1.250000e+002  0.000000e+000
      vertex -1.423279e-013  1.929110e+000  0.000000e+000
    endloop
  endfacet
  facet normal -7.739573e-001 -6.332378e-001  0.000000e+000
    outer loop
      vertex -1.423279e-013  1.929110e+000  0.000000e+000
      vertex  2.033125e+001 -2.292019e+001  0.000000e+000
      vertex -1.423279e-013  1.929110e+000  4.300000e+001
    endloop
  endfacet
  facet normal -7.739573e-001 -6.332378e-001  0.000000e+000
    outer loop
      vertex -1.423279e-013  1.929110e+000  4.300000e+001
      vertex  2.033125e+001 -2.292019e+001  0.000000e+000
      vertex  2.033125e+001 -2.292019e+001  4.300000e+001
    endloop
  endfacet
  facet normal  7.739573e-001 -6.332377e-001  0.000000e+000
    outer loop
      vertex  2.842164e+001  1.550000e+002  4.000000e+001
      vertex  3.000000e+000  1.239291e+002  4.000000e+001
      vertex  2.842164e+001  1.550000e+002  0.000000e+000
    endloop
  endfacet
  facet normal  7.739573e-001 -6.332377e-001  0.000000e+000
    outer loop
      vertex  2.842164e+001  1.550000e+002  0.000000e+000
      vertex  3.000000e+000  1.239291e+002  4.000000e+001
      vertex  3.000000e+000  1.239291e+002  0.000000e+000
    endloop
  endfacet
  facet normal  1.000000e+000  -0.000000e+000  0.000000e+000
    outer loop
      vertex  3.000000e+000  1.239291e+002  4.000000e+001
      vertex  3.000000e+000  3.000000e+000  4.000000e+001
      vertex  3.000000e+000  1.239291e+002  0.000000e+000
    endloop
  endfacet
  facet normal  1.000000e+000  0.000000e+000  0.000000e+000
    outer loop
      vertex  3.000000e+000  1.239291e+002  0.000000e+000
      vertex  3.000000e+000  3.000000e+000  4.000000e+001
      vertex  3.000000e+000  3.000000e+000  0.000000e+000
    endloop
  endfacet
  facet normal  7.739573e-001  6.332378e-001  0.000000e+000
    outer loop
      vertex  3.000000e+000  3.000000e+000  0.000000e+000
      vertex  3.000000e+000  3.000000e+000  4.000000e+001
      vertex  2.175289e+001 -1.992019e+001  0.000000e+000
    endloop
  endfacet
  facet normal  7.739573e-001  6.332378e-001  -0.000000e+000
    outer loop
      vertex  2.175289e+001 -1.992019e+001  0.000000e+000
      vertex  3.000000e+000  3.000000e+000  4.000000e+001
      vertex  2.175289e+001 -1.992019e+001  4.000000e+001
    endloop
  endfacet
  facet normal  0.000000e+000  1.000000e+000  0.000000e+000
    outer loop
      vertex  2.175289e+001 -1.992019e+001  4.000000e+001
      vertex  4.950000e+001 -1.992019e+001  4.000000e+001
      vertex  2.175289e+001 -1.992019e+001  0.000000e+000
    endloop
  endfacet
  facet normal  0.000000e+000  1.000000e+000  0.000000e+000
    outer loop
      vertex  2.175289e+001 -1.992019e+001  0.000000e+000
      vertex  4.950000e+001 -1.992019e+001  4.000000e+001
      vertex  4.950000e+001 -1.992019e+001  0.000000e+000
    endloop
  endfacet
  facet normal  0.000000e+000  1.000000e+000  0.000000e+000
    outer loop
      vertex  4.950000e+001 -1.992019e+001  4.000000e+001
      vertex  7.724712e+001 -1.992019e+001  4.000000e+001
      vertex  4.950000e+001 -1.992019e+001  0.000000e+000
    endloop
  endfacet
  facet normal  0.000000e+000  1.000000e+000  0.000000e+000
    outer loop
      vertex  4.950000e+001 -1.992019e+001  0.000000e+000
      vertex  7.724712e+001 -1.992019e+001  4.000000e+001
      vertex  7.724712e+001 -1.992019e+001  0.000000e+000
    endloop
  endfacet
  facet normal -7.739573e-001  6.332378e-001  0.000000e+000
    outer loop
      vertex  9.600000e+001  3.000000e+000  0.000000e+000
      vertex  7.724712e+001 -1.992019e+001  0.000000e+000
      vertex  9.600000e+001  3.000000e+000  4.000000e+001
    endloop
  endfacet
  facet normal -7.739573e-001  6.332378e-001  0.000000e+000
    outer loop
      vertex  9.600000e+001  3.000000e+000  4.000000e+001
      vertex  7.724712e+001 -1.992019e+001  0.000000e+000
      vertex  7.724712e+001 -1.992019e+001  4.000000e+001
    endloop
  endfacet
  facet normal -1.000000e+000  0.000000e+000  0.000000e+000
    outer loop
      vertex  9.600000e+001  1.239291e+002  4.000000e+001
      vertex  9.600000e+001  1.239291e+002  0.000000e+000
      vertex  9.600000e+001  3.000000e+000  4.000000e+001
    endloop
  endfacet
  facet normal -1.000000e+000  0.000000e+000  0.000000e+000
    outer loop
      vertex  9.600000e+001  3.000000e+000  4.000000e+001
      vertex  9.600000e+001  1.239291e+002  0.000000e+000
      vertex  9.600000e+001  3.000000e+000  0.000000e+000
    endloop
  endfacet
  facet normal -7.739573e-001 -6.332378e-001  0.000000e+000
    outer loop
      vertex  7.057836e+001  1.550000e+002  4.000000e+001
      vertex  7.057836e+001  1.550000e+002  0.000000e+000
      vertex  9.600000e+001  1.239291e+002  4.000000e+001
    endloop
  endfacet
  facet normal -7.739573e-001 -6.332378e-001  -0.000000e+000
    outer loop
      vertex  9.600000e+001  1.239291e+002  4.000000e+001
      vertex  7.057836e+001  1.550000e+002  0.000000e+000
      vertex  9.600000e+001  1.239291e+002  0.000000e+000
    endloop
  endfacet
endsolid CATIA STL
