solid CATIA STL
  facet normal  0.000000e+000  1.000000e+000  0.000000e+000
    outer loop
      vertex -3.000000e+001  1.615000e+002  7.000000e+001
      vertex -2.000000e+001  1.615000e+002  7.000000e+001
      vertex -3.000000e+001  1.615000e+002  0.000000e+000
    endloop
  endfacet
  facet normal  0.000000e+000  1.000000e+000  0.000000e+000
    outer loop
      vertex -3.000000e+001  1.615000e+002  0.000000e+000
      vertex -2.000000e+001  1.615000e+002  7.000000e+001
      vertex -2.000000e+001  1.615000e+002  5.000000e+001
    endloop
  endfacet
  facet normal  0.000000e+000  1.000000e+000  0.000000e+000
    outer loop
      vertex -3.000000e+001  1.615000e+002  0.000000e+000
      vertex -2.000000e+001  1.615000e+002  5.000000e+001
      vertex  0.000000e+000  1.615000e+002  0.000000e+000
    endloop
  endfacet
  facet normal  0.000000e+000  1.000000e+000  0.000000e+000
    outer loop
      vertex  0.000000e+000  1.615000e+002  0.000000e+000
      vertex -2.000000e+001  1.615000e+002  5.000000e+001
      vertex -1.598721e-014  1.615000e+002  5.000000e+001
    endloop
  endfacet
  facet normal  0.000000e+000 -1.000000e+000  0.000000e+000
    outer loop
      vertex -3.000000e+001  0.000000e+000  7.000000e+001
      vertex -3.000000e+001  0.000000e+000  0.000000e+000
      vertex -2.000000e+001  0.000000e+000  7.000000e+001
    endloop
  endfacet
  facet normal  0.000000e+000 -1.000000e+000  -0.000000e+000
    outer loop
      vertex -2.000000e+001  0.000000e+000  7.000000e+001
      vertex -3.000000e+001  0.000000e+000  0.000000e+000
      vertex -2.000000e+001  0.000000e+000  5.000000e+001
    endloop
  endfacet
  facet normal  0.000000e+000 -1.000000e+000  0.000000e+000
    outer loop
      vertex -3.000000e+001  0.000000e+000  0.000000e+000
      vertex  0.000000e+000  0.000000e+000  0.000000e+000
      vertex -2.000000e+001  0.000000e+000  5.000000e+001
    endloop
  endfacet
  facet normal  0.000000e+000 -1.000000e+000  0.000000e+000
    outer loop
      vertex -2.000000e+001  0.000000e+000  5.000000e+001
      vertex  0.000000e+000  0.000000e+000  0.000000e+000
      vertex -1.598721e-014  0.000000e+000  5.000000e+001
    endloop
  endfacet
  facet normal  1.000000e+000  0.000000e+000  3.197442e-016
    outer loop
      vertex -1.598721e-014  0.000000e+000  5.000000e+001
      vertex  0.000000e+000  0.000000e+000  0.000000e+000
      vertex -1.598721e-014  1.615000e+002  5.000000e+001
    endloop
  endfacet
  facet normal  1.000000e+000  0.000000e+000  3.197442e-016
    outer loop
      vertex -1.598721e-014  1.615000e+002  5.000000e+001
      vertex  0.000000e+000  0.000000e+000  0.000000e+000
      vertex  0.000000e+000  1.615000e+002  0.000000e+000
    endloop
  endfacet
  facet normal  0.000000e+000  0.000000e+000  1.000000e+000
    outer loop
      vertex -2.000000e+001  0.000000e+000  5.000000e+001
      vertex -1.598721e-014  0.000000e+000  5.000000e+001
      vertex -2.000000e+001  1.615000e+002  5.000000e+001
    endloop
  endfacet
  facet normal  -0.000000e+000  0.000000e+000  1.000000e+000
    outer loop
      vertex -2.000000e+001  1.615000e+002  5.000000e+001
      vertex -1.598721e-014  0.000000e+000  5.000000e+001
      vertex -1.598721e-014  1.615000e+002  5.000000e+001
    endloop
  endfacet
  facet normal  1.000000e+000  0.000000e+000  0.000000e+000
    outer loop
      vertex -2.000000e+001  0.000000e+000  7.000000e+001
      vertex -2.000000e+001  0.000000e+000  5.000000e+001
      vertex -2.000000e+001  1.615000e+002  7.000000e+001
    endloop
  endfacet
  facet normal  1.000000e+000  0.000000e+000  0.000000e+000
    outer loop
      vertex -2.000000e+001  1.615000e+002  7.000000e+001
      vertex -2.000000e+001  0.000000e+000  5.000000e+001
      vertex -2.000000e+001  1.615000e+002  5.000000e+001
    endloop
  endfacet
  facet normal  0.000000e+000  0.000000e+000  1.000000e+000
    outer loop
      vertex -2.000000e+001  0.000000e+000  7.000000e+001
      vertex -2.000000e+001  1.615000e+002  7.000000e+001
      vertex -3.000000e+001  0.000000e+000  7.000000e+001
    endloop
  endfacet
  facet normal  0.000000e+000  0.000000e+000  1.000000e+000
    outer loop
      vertex -3.000000e+001  0.000000e+000  7.000000e+001
      vertex -2.000000e+001  1.615000e+002  7.000000e+001
      vertex -3.000000e+001  1.615000e+002  7.000000e+001
    endloop
  endfacet
  facet normal -1.000000e+000  0.000000e+000  0.000000e+000
    outer loop
      vertex -3.000000e+001  0.000000e+000  0.000000e+000
      vertex -3.000000e+001  0.000000e+000  7.000000e+001
      vertex -3.000000e+001  1.615000e+002  0.000000e+000
    endloop
  endfacet
  facet normal -1.000000e+000  0.000000e+000  0.000000e+000
    outer loop
      vertex -3.000000e+001  1.615000e+002  0.000000e+000
      vertex -3.000000e+001  0.000000e+000  7.000000e+001
      vertex -3.000000e+001  1.615000e+002  7.000000e+001
    endloop
  endfacet
  facet normal  0.000000e+000  0.000000e+000 -1.000000e+000
    outer loop
      vertex  0.000000e+000  0.000000e+000  0.000000e+000
      vertex -3.000000e+001  0.000000e+000  0.000000e+000
      vertex  0.000000e+000  1.615000e+002  0.000000e+000
    endloop
  endfacet
  facet normal  -0.000000e+000  0.000000e+000 -1.000000e+000
    outer loop
      vertex  0.000000e+000  1.615000e+002  0.000000e+000
      vertex -3.000000e+001  0.000000e+000  0.000000e+000
      vertex -3.000000e+001  1.615000e+002  0.000000e+000
    endloop
  endfacet
endsolid CATIA STL
